<svg xmlns="http://www.w3.org/2000/svg" width="110.149" height="80.352" viewBox="0 0 110.149 80.352">
  <g id="Grupo_1716" data-name="Grupo 1716" transform="translate(-51.493 -438.613)">
    <g id="Grupo_1732" data-name="Grupo 1732">
      <g id="Grupo_1731" data-name="Grupo 1731">
        <g id="Grupo_1730" data-name="Grupo 1730">
          <path id="Trazado_130" data-name="Trazado 130" d="M2767.433,358h0a.655.655,0,0,0-.656.656v4.606a.655.655,0,0,0,.656.656h0a.656.656,0,0,0,.656-.656v-4.606a.656.656,0,0,0-.656-.656" transform="translate(-2664.677 113.135)" fill="#00bfb2"/>
          <path id="Trazado_131" data-name="Trazado 131" d="M2772.079,358h0a.656.656,0,0,0-.656.656v4.606a.656.656,0,0,0,.656.656h0a.656.656,0,0,0,.656-.656v-4.606a.656.656,0,0,0-.656-.656" transform="translate(-2664.677 113.135)" fill="#00bfb2"/>
          <path id="Trazado_132" data-name="Trazado 132" d="M2780.74,360.955a10.985,10.985,0,1,0-19.438,6.994c.66-.014,1.341-.016,2.061,0,.062,0,.115.009.176.011a9.368,9.368,0,1,1,8.466,2.1c.682.318,1.362.661,2.051,1.014a10.932,10.932,0,0,0,6.684-10.115" transform="translate(-2664.677 113.168)" fill="#00bfb2"/>
        </g>
        <path id="Trazado_133" data-name="Trazado 133" d="M2763.763,343.473a2.7,2.7,0,1,0,2.7,2.7,2.7,2.7,0,0,0-2.7-2.7" transform="translate(-2664.677 113.289)" fill="#00bfb2"/>
        <path id="Trazado_134" data-name="Trazado 134" d="M2775.746,343.473a2.7,2.7,0,1,0,2.7,2.7,2.7,2.7,0,0,0-2.7-2.7" transform="translate(-2664.677 113.289)" fill="#00bfb2"/>
      </g>
      <path id="Trazado_135" data-name="Trazado 135" d="M2751,379.774a33.844,33.844,0,0,0-4.148-7.763,27.91,27.91,0,0,1-5.124-16.119,28.233,28.233,0,0,1,3.443-13.644.769.769,0,0,0,.06-.106,28.549,28.549,0,0,1,8-9.176.6.6,0,0,0,.051-.036,27.685,27.685,0,0,1,12.508-5.154,28.255,28.255,0,0,1,28.995,14.367.661.661,0,0,0,.058.1,28.238,28.238,0,0,1-5.265,33.9c.76.059,1.478.087,2.167.1a29.869,29.869,0,0,0,4.723-34.387c2.124-2.863,8.99-12.649,5.992-15.751-2.876-2.976-12.416,3.221-15.274,5.193a30.113,30.113,0,0,0-21.627-5.116,29.26,29.26,0,0,0-12.744,5.1c-2.881-1.985-12.387-8.149-15.257-5.18-3,3.105,3.88,12.906,6,15.759a29.887,29.887,0,0,0,1.986,31.077,32.212,32.212,0,0,1,3.949,7.383l1.967,5.467q.839-.033,1.682-.077Zm50.3-52.548c1.51,1.561-2.3,8.376-5.706,13.1a29.883,29.883,0,0,0-6.035-7.173c-.331-.287-.671-.56-1.013-.83,4.618-3.111,11.314-6.583,12.754-5.092m-62.588,0c1.438-1.489,8.123,1.974,12.741,5.083a30.154,30.154,0,0,0-7.031,8.016c-3.405-4.719-7.22-11.538-5.71-13.1" transform="translate(-2664.677 113.301)" fill="#00bfb2"/>
    </g>
    <path id="Trazado_136" data-name="Trazado 136" d="M2826.318,403.163a.553.553,0,0,0-.017-.054.751.751,0,0,0-.047-.155.789.789,0,0,0-.063-.137.728.728,0,0,0-.095-.115.789.789,0,0,0-.112-.105.767.767,0,0,0-.133-.072.848.848,0,0,0-.148-.056c-.02,0-.036-.017-.056-.021-.077-.013-7.708-1.351-11.168-10.31-3.5-9.063-7.7-13.875-13.219-15.144a31.669,31.669,0,0,0-7.94-.74c-.528,0-1.063,0-1.608-.009-.689-.01-1.406-.038-2.167-.1a31.463,31.463,0,0,1-6.571-1.249,43.667,43.667,0,0,1-8.361-3.528l-.588-.3c-.69-.354-1.37-.7-2.052-1.015a20.384,20.384,0,0,0-8.465-2.094c-.061,0-.115-.009-.176-.011-.721-.017-1.4-.015-2.062,0-.7.014-1.352.061-1.981.125-.017,0-.026,0-.043,0a6.625,6.625,0,0,0-.827.1l-.18.027c-2.185.431-3.878,1.864-3.292,3.143a7.674,7.674,0,0,0,2.072,1.98c2.077,1.561,4.892,3.306,4.892,3.306a46.534,46.534,0,0,1,4.338,3.711c1.361,1.252,2.753,2.529,4.125,3.642-3.09.438-10.2,1.365-17.266,1.738q-.843.043-1.682.077c-1.265.05-2.52.082-3.737.084a56.963,56.963,0,0,1-12.954-10.351c-6.235-6.99-10-11.209-13.071-8.874-2,1.518.68,6.528,3.389,10.6-3.217-2.319-5.852-3.839-8.1-2.463a1.833,1.833,0,0,0-.784,1.539c-.072,1.729,1.383,5.785,11.933,13.533,12.965,9.521,26.725,14.228,46.007,15.741,3.958.311,8.386.434,12.943.434,18.144,0,38.29-1.969,38.542-1.994a.667.667,0,0,0,.079-.025.824.824,0,0,0,.177-.053,1.058,1.058,0,0,0,.1-.062.855.855,0,0,0,.131-.108.742.742,0,0,0,.079-.1.71.71,0,0,0,.079-.146.7.7,0,0,0,.044-.125.487.487,0,0,0,.02-.057.784.784,0,0,0,0-.1.735.735,0,0,0,.01-.1m-103.681-35.229c1.8-1.37,5.145,2.213,10.9,8.663a55.977,55.977,0,0,0,10.974,9.214,35.394,35.394,0,0,1-4.867-.506c-3.868-.73-7.411-2.885-10.471-5.047-4.685-6.188-7.358-11.7-6.533-12.324m51.6,36.065c-18.963-1.487-32.475-6.1-45.181-15.435-9.615-7.06-11.075-10.63-11.256-11.837a1.518,1.518,0,0,1,0-.569c1.692-1.028,4.587,1.115,7.94,3.6,3.688,2.73,8.279,6.128,13.6,7.132,10.246,1.933,31.544-1.345,32.836-1.548l.083.059a20.172,20.172,0,0,0,8.965,3.644.8.8,0,0,0,.123-1.6,19.01,19.01,0,0,1-8.184-3.37,55.678,55.678,0,0,1-5.827-4.914,38.691,38.691,0,0,0-4.906-4.1c-.018-.015-3.906-2.563-4.985-3.282-1.037-.691-.9-1.3-.132-1.743a21.172,21.172,0,0,1,5.977-.47c4.507.11,7.323,1.562,10.583,3.243a45.644,45.644,0,0,0,8.647,3.642,32.625,32.625,0,0,0,7.292,1.343h0c1.252.08,2.388.079,3.506.076a29.867,29.867,0,0,1,7.575.7c4.952,1.138,8.79,5.637,12.08,14.155a18.148,18.148,0,0,0,8.814,10.053c-8.849.753-31.93,2.455-47.555,1.229" transform="translate(-2664.677 112.928)" fill="#472b74"/>
  </g>
</svg>
