<svg xmlns="http://www.w3.org/2000/svg" width="87.889" height="77.868" viewBox="0 0 87.889 77.868">
  <g id="Grupo_1884" data-name="Grupo 1884" transform="translate(888.295 -14035.886)">
    <path id="Trazado_1380" data-name="Trazado 1380" d="M248.231,756.724a7.677,7.677,0,0,1-2.382-.862.706.706,0,0,1-.371-.652.859.859,0,0,1,.481-.752,8.1,8.1,0,0,0,3.307-3.011c.986-1.623,1.54-4.618,2.127-7.789.6-3.246,1.221-6.6,2.284-8.409a12.344,12.344,0,0,1,5.912-4.787.889.889,0,0,0,.6-.861c-.028-1.054.245-4.117,1.817-5.611s5.458-1.6,6.823-1.52a.886.886,0,0,0,.11-1.769,17.119,17.119,0,0,0-6.031.765,7.3,7.3,0,0,1,2.041-2.551c2.1-1.663,5.163-2.249,9.107-1.736a73.4,73.4,0,0,1,10.739,2.3l1.307-1.47c-.607-.178-1.213-.351-1.814-.516l-.013-.009c-.066-.027-6.672-2.744-8.387-7.686s-3.722-9.695-7.667-8.672c-3.967,1.029-3.967,6.65-3.967,8.5a21.133,21.133,0,0,0,1.648,6.664,9.6,9.6,0,0,0-2.053,1.239,9.157,9.157,0,0,0-3.29,5.437c-1.727,1.863-2.072,4.777-2.131,6.056a13.775,13.775,0,0,0-6.275,5.332c-1.221,2.076-1.871,5.588-2.5,8.984-.532,2.875-1.083,5.847-1.9,7.193a6.351,6.351,0,0,1-2.6,2.352,2.639,2.639,0,0,0-1.445,2.293,2.466,2.466,0,0,0,1.268,2.23,9.44,9.44,0,0,0,2.93,1.063,6.694,6.694,0,0,0,1.236.116,6.489,6.489,0,0,0,.982-.08l3.253-3.66a5.956,5.956,0,0,1-5.145,1.882m20.432-53.882c1.962-.508,3.465,1.534,5.548,7.536a13.138,13.138,0,0,0,4.4,5.773c-1.475-.291-2.929-.547-4.335-.73a17.322,17.322,0,0,0-6.7.291,19.789,19.789,0,0,1-1.556-6.089c0-4.1.863-6.32,2.64-6.781" transform="translate(-1129.531 13334.9)" fill="#472b74"/>
    <path id="Trazado_1381" data-name="Trazado 1381" d="M320.931,743.555c-8.416-12.462-17.817-18.4-21.728-20.486l-1.21,1.363c3.514,1.815,12.986,7.553,21.469,20.115a45.833,45.833,0,0,1,7.62,30.087c-1.9-4.12-6-10.743-12.166-9.2-3.029.757-5.8,2.681-8.733,4.718-5.084,3.53-10.343,7.182-17.989,5.84-7.182-1.26-13.41-4.43-18.414-6.977-3.628-1.846-6.772-3.439-9.509-3.977l-.009,0c-.086-.016-.175-.042-.26-.056h0a27.32,27.32,0,0,0-5.558-.451,1.4,1.4,0,0,1-1.235-.634,1.355,1.355,0,0,1-.1-1.347,9.377,9.377,0,0,1,8.786-5.556,28.391,28.391,0,0,1,10.66,1.789c2.952.964,5.5,1.795,8.616.634a3.787,3.787,0,0,0,2.34-2.4c1.28-3.776-2.285-10.282-3.505-12.339l-1.24,1.4c1.533,2.705,3.938,7.8,3.066,10.374a1.99,1.99,0,0,1-1.281,1.3c-2.532.945-4.594.273-7.446-.658-.986-.322-2.064-.67-3.258-.98-.623-.162-1.285-.309-1.981-.44a27.286,27.286,0,0,0-6.03-.456c-6.109.2-8.991,3.691-10.334,6.58a3.136,3.136,0,0,0,.234,3.074,3.171,3.171,0,0,0,2.775,1.425,22.888,22.888,0,0,1,3.735.206c.473.061.959.133,1.459.22h0c.194.034.4.086.6.132a43.3,43.3,0,0,1,8.677,3.736c5.109,2.6,11.468,5.837,18.912,7.144,8.364,1.466,14.178-2.57,19.306-6.131,2.8-1.942,5.437-3.775,8.152-4.454,7.034-1.754,11.234,10.956,11.275,11.085a.887.887,0,0,0,.844.614h.031a.885.885,0,0,0,.828-.673,46.064,46.064,0,0,0-7.393-34.625" transform="translate(-1129.531 13334.9)" fill="#472b74"/>
    <path id="Trazado_1382" data-name="Trazado 1382" d="M299.931,712.566c-4.052-3.749-6.644-2.427-6.926-2.263a.872.872,0,0,0-.219.178l-6.688,7.528-1.306,1.47-31.416,35.363-3.253,3.66-6.193,6.972a.875.875,0,0,0-.2.389l-2.471,10.693a.887.887,0,0,0,.864,1.086.867.867,0,0,0,.242-.034l10.983-3.132a.883.883,0,0,0,.419-.263l6.533-7.353c-.2-.047-.4-.1-.6-.132h0q-.75-.129-1.459-.22l-5.628,6.336-9.29,2.649,2.081-9.01,9.289-10.455.037-.042,39.245-44.174c.424-.129,2.1-.4,4.752,2.056,2.963,2.741,2.559,4.1,2.516,4.237l-33.381,37.575c.7.131,1.357.278,1.98.439l8.92-10.04,1.239-1.4,17.993-20.251,1.21-1.363,3.418-3.848a.772.772,0,0,0,.058-.071c.178-.248,1.617-2.543-2.749-6.583" transform="translate(-1129.531 13334.9)" fill="#aadb1e"/>
  </g>
</svg>
