<svg xmlns="http://www.w3.org/2000/svg" width="232.714" height="141.718" viewBox="0 0 232.714 141.718">
  <g id="Grupo_10" data-name="Grupo 10" transform="translate(-908.9 -809.879)">
    <path id="Trazado_4" data-name="Trazado 4" d="M254.476,810.646c-1.875,12.194,21.049,1.784,38.3,0a222.58,222.58,0,0,1,29.317-1.188l-55.438-13.17c-3.794,2.256-11.114,7.441-12.18,14.358" transform="translate(678 127)" fill="#aadb1e"/>
    <path id="Trazado_5" data-name="Trazado 5" d="M421.122,737.657c-7.332-13.955-8.386-32.065-6.4-44.388A8.9,8.9,0,0,0,403.632,683.2c-7.7,2.108-14.978,10.083-18.933,21.5-7.8,22.548,1.3,55.5,1.3,55.5H269.116a46.762,46.762,0,0,0-24.576,6.713c-8.3,5.121-16.006,13.645-12.96,27.132a7.583,7.583,0,0,0,9.706,5.62c4.594-1.5,12.381-3.005,25.371-3.381l55.437,13.169c16.743,6.883,34.154,14.041,53.933,14.92,21.679.959,42.492-.436,62.438-20.38a313,313,0,0,0,25.149-28.618s-29.051-12.141-42.492-37.722" transform="translate(678 127)" fill="#00bfb2"/>
  </g>
</svg>
