<svg xmlns="http://www.w3.org/2000/svg" width="232.109" height="131.142" viewBox="0 0 232.109 131.142">
  <g id="Grupo_1388" data-name="Grupo 1388" transform="translate(-1914.758 -447.116)">
    <path id="Trazado_41" data-name="Trazado 41" d="M805.093,403.561a1.469,1.469,0,0,1-1.411.421,100.682,100.682,0,0,0-16.843-2.343c-13.242-.7-24.766.753-35.235,4.433a58.811,58.811,0,0,0-6.089,2.676c-6.906,3.346-15.495,7.508-35.96,7.508h-.2c-22.995-.029-44.792-13.28-50.125-18.775,17.169,1.866,27.966-33.774,48.322-68.5,5.667-9.667,25.375-32.134,33.332-37.449,9.517-6.356,26.249-7.419,38.616-5.653,3.084.441,5.716.728,8.037.982,8.07.883,9.81,1.3,9.916,3.706.163,3.765-5.608,7.535-10.877,8.389a71.539,71.539,0,0,1-11.951.281,31,31,0,0,0-13.289,2.482c-3.846,1.667-6.317,3.036-7.556,4.186-3.1,2.877-19.043,21.084-21.41,41.115-2.14,18.127,10.011,34.155,15.61,37.877,3.762,2.5,10.117,2.842,16.083,1.614,2.057-.423,5.214-.843,7.5-1.364a36.066,36.066,0,0,1,19.672,1.362c9.4,2.557,12.935,10.773,14.224,15.647a1.447,1.447,0,0,1-.368,1.406" transform="translate(1255.526 162.002)" fill="#472b74"/>
    <path id="Trazado_42" data-name="Trazado 42" d="M737.828,291.606c-8.561-.2-11.862-.481-15.6,3.248-1.874,1.873-7.131,15.742-10.816,25.894a141.66,141.66,0,0,1,12.237-15.763,175.144,175.144,0,0,1,14.174-13.379" transform="translate(1255.526 162.002)" fill="#472b74"/>
    <path id="Trazado_43" data-name="Trazado 43" d="M783.045,300.512c-2.667.1-6.946.072-9.641.038l-1.85.135c2.835.9,5.729,3.369,9.053,3.42,5.656.087,7.852-2.58,8.7-4.393a41.253,41.253,0,0,1-6.259.8" transform="translate(1255.526 162.002)" fill="#472b74"/>
    <path id="Trazado_44" data-name="Trazado 44" d="M825.607,321.965a25.053,25.053,0,0,0,.034,50.106h.05a25.026,25.026,0,0,0,17.728-7.364,24.662,24.662,0,0,0,7.338-17.638,25.072,25.072,0,0,0-7.469-17.851,24.755,24.755,0,0,0-17.681-7.253m16.8,26.188a1.109,1.109,0,0,1-.871.31c-.73-.041-1.42-.291-1.532-1.837-.587-8.048-5.911-13.38-13.9-13.916-1.535-.1-1.8-.793-1.855-1.522a1.065,1.065,0,0,1,.282-.844,2.25,2.25,0,0,1,1.632-.544h.073a17.194,17.194,0,0,1,16.7,16.675,2.273,2.273,0,0,1-.536,1.677" transform="translate(1255.526 162.002)" fill="#00bfb2"/>
    <rect id="Rectángulo_83" data-name="Rectángulo 83" width="8.127" height="19.049" transform="matrix(0.004, -1, 1, 0.004, 2071.703, 469.365)" fill="#00bfb2"/>
    <path id="Trazado_45" data-name="Trazado 45" d="M884.2,307.546l-2.986-.006c-7.583-.015-15.427-.03-23.138.04a4,4,0,0,1-3.867-2.022c-1.769-2.71-3.624-5.432-5.417-8.065-1.387-2.036-2.774-4.072-4.138-6.124a2.414,2.414,0,0,0-2.3-1.234h-.011c-12.009.029-22.739.019-32.8-.024a3.088,3.088,0,0,0-3.046,1.585c-3,4.595-6.052,9.05-9.709,14.324a3.328,3.328,0,0,1-2.236,1.469c-4.27.071-8.46.065-12.9.058l-4.411,0s-.136-1.582-.146-2.078c-2.009-.922-5.543-2.14-6.756-2.671-.264,1.654-.405,2.039-.689,4.126l-.068.5-.977.06c-.361.025-.73.05-1.1.055-4.94.052-7.447,2.607-7.452,7.593q-.009,10.491-.006,20.983l0,42.811a7.6,7.6,0,0,0,2.042,5.75l.015-.006s11.375-3.063,18.687-2.5a55.224,55.224,0,0,1,12.672,2.435,21.483,21.483,0,0,1,3.959,1.9q43.341,0,86.682,0c4.524,0,7.225-2.719,7.228-7.27q.011-32.258,0-64.516c0-4.418-2.738-7.167-7.14-7.174M813.2,299.154c.052-1.962.917-2.8,2.891-2.8q4.893,0,9.784.025,4.727.02,9.452.053c2.1.015,3,.935,3.014,3.077q.028,3.949-.034,7.9c-.034,2.171-.885,3.021-3.033,3.03-2.17.01-4.338,0-6.509-.017l-3.015-.015-2.789-.006c-2.3-.005-4.609-.009-6.915-.04-2.01-.027-2.844-.835-2.879-2.786-.052-2.858-.041-5.692.033-8.423m32.21,67.7a27.9,27.9,0,0,1-19.771,8.091h-.058a27.93,27.93,0,0,1,.1-55.859h.026a27.975,27.975,0,0,1,19.7,47.768" transform="translate(1255.526 162.002)" fill="#00bfb2"/>
  </g>
</svg>
