<svg xmlns="http://www.w3.org/2000/svg" width="110.493" height="79.547" viewBox="0 0 110.493 79.547">
  <g id="Grupo_1738" data-name="Grupo 1738" transform="translate(-9575 -1028)">
    <path id="Trazado_1236" data-name="Trazado 1236" d="M340.426,409.48a.481.481,0,0,0-.017-.054.78.78,0,0,0-.047-.156.769.769,0,0,0-.063-.136.713.713,0,0,0-.1-.116.6.6,0,0,0-.246-.178.821.821,0,0,0-.148-.056c-.02,0-.036-.017-.057-.021-.076-.013-7.731-1.355-11.2-10.342-3.509-9.091-7.724-13.919-13.261-15.191a31.736,31.736,0,0,0-7.965-.743c-.528,0-1.065,0-1.612-.009-.691-.01-1.411-.038-2.174-.1a31.583,31.583,0,0,1-6.592-1.253,43.925,43.925,0,0,1-8.387-3.539c-.2-.1-.393-.2-.59-.3l-.013-.007c-.55-.282-1.093-.548-1.637-.81-.136-.064-.272-.138-.408-.2a22.185,22.185,0,0,0-4.534-1.6,20.548,20.548,0,0,0-3.958-.5c-.061,0-.115-.009-.176-.011-.723-.017-1.4-.015-2.068,0-.7.014-1.357.062-1.988.126l-.043,0a6.861,6.861,0,0,0-.83.1l-.18.027a6.658,6.658,0,0,0-.942.265c-1.7.6-2.86,1.8-2.36,2.888a7.69,7.69,0,0,0,2.078,1.986c1.255.943,2.77,1.947,3.783,2.6.669.432,1.125.715,1.125.715.372.255.79.586,1.225.945.968.8,2.053,1.79,3.127,2.778,1.364,1.256,2.76,2.537,4.137,3.653-1.781.252-4.9.667-8.563,1.044-2.719.281-5.741.54-8.757.7q-.846.043-1.688.077c-1.269.05-2.527.082-3.749.085-.255-.147-.8-.47-1.546-.936a55.907,55.907,0,0,1-11.448-9.449c-6.254-7.011-10.029-11.243-13.111-8.9-2,1.523.681,6.548,3.4,10.635-3.227-2.327-5.87-3.852-8.122-2.471a1.833,1.833,0,0,0-.786,1.544c-.073,1.734,1.387,5.8,11.969,13.575,13.006,9.55,26.809,14.272,46.152,15.79,3.97.312,8.412.436,12.983.436,18.2,0,38.41-1.976,38.663-2a.735.735,0,0,0,.079-.025.808.808,0,0,0,.177-.054.914.914,0,0,0,.106-.061.862.862,0,0,0,.131-.109.733.733,0,0,0,.079-.1.694.694,0,0,0,.08-.147.662.662,0,0,0,.044-.125.482.482,0,0,0,.02-.057.617.617,0,0,0,0-.1.593.593,0,0,0,.011-.1m-104-35.339c1.807-1.374,5.16,2.22,10.93,8.69a56.2,56.2,0,0,0,11.009,9.243,35.737,35.737,0,0,1-4.882-.507c-3.881-.733-7.434-2.894-10.5-5.064-4.7-6.207-7.38-11.733-6.552-12.362m51.762,36.178c-19.022-1.492-32.577-6.122-45.323-15.483-9.644-7.083-11.109-10.664-11.291-11.875a1.471,1.471,0,0,1,0-.57c1.7-1.031,4.6,1.118,7.964,3.607,3.7,2.739,8.3,6.148,13.642,7.155,5.849,1.1,15.285.514,22.573-.237,5.518-.568,9.807-1.228,10.365-1.316l.083.058c.71.482,1.4.894,2.057,1.258a18.765,18.765,0,0,0,6.936,2.4.807.807,0,0,0,.124-1.609,14.068,14.068,0,0,1-3.151-.789,21.757,21.757,0,0,1-3.529-1.637c-.5-.285-1.007-.6-1.53-.955a55.878,55.878,0,0,1-5.845-4.929c-.61-.562-1.188-1.088-1.752-1.591-.692-.619-1.35-1.186-1.958-1.66a14.042,14.042,0,0,0-1.212-.862c-.017-.015-3.917-2.57-5-3.292-1.041-.693-.906-1.3-.133-1.749a21.257,21.257,0,0,1,6-.471,20.059,20.059,0,0,1,9.115,2.491c.495.247.992.5,1.5.762l.136.07a45.238,45.238,0,0,0,8.538,3.584,32.628,32.628,0,0,0,7.315,1.346h0c1.256.081,2.395.08,3.517.077a29.965,29.965,0,0,1,7.6.7c4.968,1.142,8.818,5.655,12.118,14.2a18.213,18.213,0,0,0,8.842,10.084c-8.877.755-32.031,2.463-47.7,1.233" transform="translate(9345.066 695.183)" fill="#472b74"/>
    <g id="Grupo_1737" data-name="Grupo 1737" transform="translate(6 38)">
      <path id="Rectángulo_782" data-name="Rectángulo 782" d="M6,2A4,4,0,0,0,2,6V33a4,4,0,0,0,4,4H61a4,4,0,0,0,4-4V6a4,4,0,0,0-4-4H6M6,0H61a6,6,0,0,1,6,6V33a6,6,0,0,1-6,6H6a6,6,0,0,1-6-6V6A6,6,0,0,1,6,0Z" transform="translate(9591 990)" fill="#00bfb2"/>
      <rect id="Rectángulo_783" data-name="Rectángulo 783" width="67" height="7" transform="translate(9591 999)" fill="#00bfb2"/>
      <path id="Rectángulo_783_-_Contorno" data-name="Rectángulo 783 - Contorno" d="M1,1V6H66V1H1M0,0H67V7H0Z" transform="translate(9591 999)" fill="#00bfb2"/>
    </g>
  </g>
</svg>
