<svg xmlns="http://www.w3.org/2000/svg" width="95.921" height="91.834" viewBox="0 0 95.921 91.834">
  <g id="Grupo_1740" data-name="Grupo 1740" transform="translate(-54.972 -517.397)">
    <g id="Grupo_1404" data-name="Grupo 1404">
      <path id="Trazado_1069" data-name="Trazado 1069" d="M3022.671,3362.984l13.676-13.676h61.132l-13.676,13.676" transform="translate(-2955 -2757)" fill="none" stroke="#0ec2b6" stroke-linecap="round" stroke-width="3"/>
      <path id="Trazado_1070" data-name="Trazado 1070" d="M3041.614,3360.146h36.358" transform="translate(-2956.86 -2759)" fill="none" stroke="#0ec2b6" stroke-linecap="round" stroke-width="3"/>
      <path id="Trazado_1071" data-name="Trazado 1071" d="M3099.672,3353.309v15.422" transform="translate(-2954 -2761)" fill="none" stroke="#0ec2b6" stroke-linecap="round" stroke-width="3"/>
    </g>
    <g id="Grupo_1406" data-name="Grupo 1406">
      <path id="Trazado_1067" data-name="Trazado 1067" d="M39.048,59.1c-3.327,0-4.8-3.059-5.121-4.74a.613.613,0,0,1-.01-.079L32.779,41.035a4.765,4.765,0,0,0-3.006-4.045,66.47,66.47,0,0,1-7.589-3.516,12.072,12.072,0,0,1-2.217-1.6l-2.052-1.861a16.272,16.272,0,0,0-8.02-3.958L.64,24.372a.779.779,0,0,1-.628-.9c1.051-6.006,5.7-11.384,13.077-15.144a39.634,39.634,0,0,1,20.977-4.27c1.053.1,2.882.271,5.593.507A32.58,32.58,0,0,0,46.744,4.4L79.512.06a5.064,5.064,0,0,1,3.5.723,4.472,4.472,0,0,1,1.8,3.072,4.15,4.15,0,0,1-.689,3.3,6.038,6.038,0,0,1-3.744,2.035l-11.493,1.5,20.869,4.936a.859.859,0,0,1,.147.051c1.4.643,3.877,2.7,3.26,5.89A3.872,3.872,0,0,1,91.5,24.184a5.346,5.346,0,0,1-3.7.589L74.195,21.648,93.069,35.218c1.67,1.231,4.218,4.428,1.961,7.762a3.527,3.527,0,0,1-2.6,1.633c-2.735.306-5.82-2.423-6.223-2.791L73.058,32.407c.88,9.031,2.117,20.113,2.13,20.231.244,1.681-.122,5.076-3.274,5.718a3.71,3.71,0,0,1-2.978-.558c-1.687-1.185-2.28-3.686-2.484-5.071-.263-1.783-3.135-14.05-4.642-17.384l-.056-.125C60.169,31.707,58,26.9,51.987,28.041c-5.464,1.039-8.062,3.695-7.942,8.121.109,4.052.275,17.14.277,17.271,0,.019,0,.038,0,.057-.11,1.823-1.269,5.341-4.871,5.6-.136.01-.27.014-.4.014m-3.584-5c.084.392.879,3.636,3.875,3.429,3.055-.219,3.4-3.747,3.425-4.113-.009-.719-.169-13.273-.276-17.218C42.346,30.96,45.445,27.7,51.7,26.51c7.217-1.37,9.882,4.537,11.477,8.066l.056.124c1.592,3.525,4.488,15.93,4.763,17.8.135.915.583,3.14,1.838,4.021a2.179,2.179,0,0,0,1.773.308c2.514-.511,2.061-3.852,2.04-3.993s-1.419-12.7-2.3-21.987a.779.779,0,0,1,1.229-.707L87.149,40.584a.723.723,0,0,1,.078.064c.794.741,3.252,2.614,5.028,2.417a2.009,2.009,0,0,0,1.485-.956c1.992-2.943-1.44-5.522-1.588-5.631L70.6,20.978a.783.783,0,0,1-.312-.49l-.043-.224a.779.779,0,0,1,.939-.907l16.962,3.9a3.8,3.8,0,0,0,2.512-.376,2.344,2.344,0,0,0,.974-1.613c.5-2.571-1.906-3.934-2.322-4.149L64.383,11.22a.779.779,0,0,1,.079-1.531L80.177,7.638a4.5,4.5,0,0,0,2.695-1.422,2.626,2.626,0,0,0,.4-2.1A2.986,2.986,0,0,0,82.129,2.07,3.527,3.527,0,0,0,79.757,1.6L46.948,5.947a34.143,34.143,0,0,1-7.425.169c-2.717-.237-4.553-.4-5.613-.509C21.209,4.334,4.338,11.765,1.7,22.983l8.472,1.544a17.829,17.829,0,0,1,8.787,4.337l2.052,1.86a10.469,10.469,0,0,0,1.93,1.39,64.941,64.941,0,0,0,7.4,3.428A6.312,6.312,0,0,1,34.331,40.9Z" transform="translate(54.972 517.398)" fill="#00bfb2"/>
      <g id="Grupo_1405" data-name="Grupo 1405">
        <path id="Trazado_1068" data-name="Trazado 1068" d="M81.161,99.058a9.845,9.845,0,1,0,9.845-9.845,9.845,9.845,0,0,0-9.845,9.845" transform="translate(18.839 476.787)" fill="#aadb1e"/>
        <path id="Trazado_1072" data-name="Trazado 1072" d="M96.122,78.824a4.614,4.614,0,0,0,.549.328,3.231,3.231,0,0,0,.567.225,1.921,1.921,0,0,0,.528.082,2.424,2.424,0,0,0,.64-.082,1.592,1.592,0,0,0,.522-.243,1.2,1.2,0,0,0,.349-.388,1.044,1.044,0,0,0,.127-.519.662.662,0,0,0-.173-.455,1.625,1.625,0,0,0-.449-.343,3.982,3.982,0,0,0-.619-.264q-.343-.115-.689-.218a.991.991,0,0,1-.124-.042c-.039-.016-.076-.03-.112-.042a8.431,8.431,0,0,1-1.159-.488,3.53,3.53,0,0,1-.813-.567,2.01,2.01,0,0,1-.476-.686,2.2,2.2,0,0,1-.155-.843A2.346,2.346,0,0,1,94.8,73.4a2.17,2.17,0,0,1,.464-.716,2.687,2.687,0,0,1,.734-.528,3.573,3.573,0,0,1,.971-.312v-.868a.282.282,0,0,1,.066-.188.246.246,0,0,1,.2-.079h.882a.3.3,0,0,1,.193.073.237.237,0,0,1,.091.194v.843a4.693,4.693,0,0,1,.725.182,3.937,3.937,0,0,1,.7.315q.17.1.352.222a3.806,3.806,0,0,1,.331.252,1.732,1.732,0,0,1,.243.249.365.365,0,0,1,.094.206.359.359,0,0,1-.127.243l-.68.7a.273.273,0,0,1-.194.091.536.536,0,0,1-.279-.146q-.182-.146-.437-.325a3.458,3.458,0,0,0-.582-.325,1.754,1.754,0,0,0-.721-.146,2.147,2.147,0,0,0-.6.076,1.4,1.4,0,0,0-.439.206.87.87,0,0,0-.269.309.841.841,0,0,0-.091.385.638.638,0,0,0,.134.407,1.238,1.238,0,0,0,.367.3,3.307,3.307,0,0,0,.558.246q.325.112.707.228.589.182,1.135.394a4.218,4.218,0,0,1,.959.513,2.352,2.352,0,0,1,.661.731,2.068,2.068,0,0,1,.249,1.05,2.594,2.594,0,0,1-.213,1.059,2.678,2.678,0,0,1-.587.846,3.108,3.108,0,0,1-.885.6,4.005,4.005,0,0,1-1.113.319v.837q0,.273-.284.273h-.882a.238.238,0,0,1-.266-.273v-.868a4.007,4.007,0,0,1-.925-.282,4.8,4.8,0,0,1-.846-.482,4,4,0,0,1-.331-.264,3.727,3.727,0,0,1-.285-.279,2.426,2.426,0,0,1-.2-.246.342.342,0,0,1-.076-.164.3.3,0,0,1,.121-.212l.765-.7a.355.355,0,0,1,.194-.085.209.209,0,0,1,.109.033.849.849,0,0,1,.121.094l.036.042a3.414,3.414,0,0,0,.473.391" transform="translate(12.096 500.085)" fill="#fff"/>
      </g>
    </g>
  </g>
</svg>
