<svg xmlns="http://www.w3.org/2000/svg" width="76.402" height="113.872" viewBox="0 0 76.402 113.872">
  <path id="Trazado_1091" data-name="Trazado 1091" d="M242.471,351.12c.918,3.3,3.509,9.236,10.505,11.534a28.535,28.535,0,0,0,8.929,1.238,97.837,97.837,0,0,0,10.334-.748,64.278,64.278,0,0,1,11.876-.586c12.859,1.115,19.747,4,21.055,8.81.841,3.1-1.5,6.79-1.518,6.826a.842.842,0,0,0,.289,1.184c.053.03,5.307,3.1,5.764,7.766a6.338,6.338,0,0,1-3.464,6.35.84.84,0,0,0,0,1.531c.211.1,5.146,2.38,4.878,7.3a7.581,7.581,0,0,1-4.244,6.667.841.841,0,0,0-.216,1.426c.047.038,4.657,3.922,2.585,9.5-2.458,6.619-11.129,6.043-15.785,5.734-.731-.048-1.364-.09-1.862-.1-6.971-.119-9.423,1.044-11.076,2.5a5.394,5.394,0,0,1,1.628-2.968,9.077,9.077,0,0,1,7.829-1.986,9.211,9.211,0,0,1,3.115,1.347.84.84,0,0,0,.97-1.372,10.662,10.662,0,0,0-12.979.712c-3.3,2.7-2.825,9.113-2.369,15.311.061.83.121,1.652.171,2.453.369,5.894.054,12.733-5.072,18.764-2.9,3.408-8.264,4.425-12.257,4.679a1.97,1.97,0,0,1-1.768-.851,2.032,2.032,0,0,1-.2-1.991c1.288-2.967,2.7-6.366,4.194-10.1,4.045-10.113,1.882-19.965-.68-29.189-1.217-4.38-5.526-8.387-10.516-13.028C246,403.7,238.53,396.752,235.8,386.9c-3.865-13.955,3.743-30.266,6.668-35.785" transform="translate(-234.731 -351.12)" fill="#00bfb2"/>
</svg>
