<svg xmlns="http://www.w3.org/2000/svg" xmlns:xlink="http://www.w3.org/1999/xlink" width="118.332" height="118.332" viewBox="0 0 118.332 118.332"><defs><filter id="a" x="0" y="0" width="118.332" height="118.332" filterUnits="userSpaceOnUse"><feOffset dy="3" input="SourceAlpha"/><feGaussianBlur stdDeviation="3" result="b"/><feFlood flood-opacity="0.161"/><feComposite operator="in" in2="b"/><feComposite in="SourceGraphic"/></filter></defs><g transform="matrix(1, 0, 0, 1, 0, 0)" filter="url(#a)"><path d="M418.223,691.94q2.465,0,4.918.241t4.869.723q2.418.48,4.777,1.2t4.634,1.658q2.278.944,4.451,2.106t4.222,2.531q2.05,1.369,3.955,2.933t3.647,3.305q1.743,1.743,3.306,3.647t2.933,3.955q1.371,2.048,2.531,4.222t2.106,4.451q.942,2.276,1.658,4.636t1.2,4.775q.48,2.416.723,4.869t.241,4.918q0,2.465-.241,4.918t-.723,4.869q-.48,2.418-1.2,4.775t-1.658,4.636q-.944,2.278-2.106,4.451t-2.531,4.222q-1.369,2.05-2.933,3.955t-3.306,3.647q-1.743,1.743-3.647,3.306t-3.955,2.933q-2.05,1.371-4.222,2.531t-4.451,2.106q-2.276.942-4.634,1.658t-4.777,1.2q-2.416.48-4.869.723t-4.918.241q-2.465,0-4.918-.241t-4.869-.723q-2.418-.48-4.777-1.2t-4.634-1.658q-2.278-.944-4.451-2.106t-4.222-2.531q-2.05-1.369-3.955-2.933t-3.647-3.306q-1.743-1.743-3.306-3.647t-2.933-3.955q-1.371-2.05-2.531-4.222t-2.106-4.451q-.942-2.276-1.658-4.636t-1.2-4.775q-.48-2.416-.723-4.869t-.241-4.918q0-2.465.241-4.918t.723-4.869q.48-2.418,1.2-4.775t1.658-4.636q.944-2.278,2.106-4.451t2.531-4.222q1.369-2.05,2.933-3.955t3.306-3.647q1.743-1.743,3.647-3.305t3.955-2.933q2.048-1.371,4.222-2.531t4.451-2.106q2.276-.942,4.634-1.658t4.777-1.2q2.416-.48,4.869-.723t4.918-.241" transform="translate(-359.06 -685.94)" fill="#00bfb2"/></g></svg>