<svg xmlns="http://www.w3.org/2000/svg" width="217.918" height="65.437" viewBox="0 0 217.918 65.437">
  <g id="Grupo_3" data-name="Grupo 3" transform="translate(-48.234 -131.992)">
    <g id="Grupo_6" data-name="Grupo 6" transform="translate(48.234 150.614)">
      <g id="Grupo_5" data-name="Grupo 5" transform="translate(0 0)">
        <path id="Trazado_7" data-name="Trazado 7" d="M110.39,205.308a58.5,58.5,0,0,1-8.544,5.348,13.294,13.294,0,0,1-6.094,1.3,9.929,9.929,0,0,1-7.066-2.632,12.269,12.269,0,0,1-3.463-7.679H110.39A24.348,24.348,0,0,0,109.2,194.9a17.189,17.189,0,0,0-2.957-5.48,13.83,13.83,0,0,0-4.723-3.714,14.66,14.66,0,0,0-6.49-1.371,18.693,18.693,0,0,0-6.814,1.19,14.914,14.914,0,0,0-5.227,3.353,14.633,14.633,0,0,0-3.317,5.156,18.2,18.2,0,0,0-1.154,6.6,20.194,20.194,0,0,0,1.034,6.576l-10.4,4.173a11.365,11.365,0,0,1-2.312.428,5.529,5.529,0,0,1-3.857-1.406,5.216,5.216,0,0,1-1.551-4.075v-15.07H74.409v-5.336H61.43V177.7l-5.985,1.875v6.345h-7.21v5.336h7.21v16.512a10.467,10.467,0,0,0,2.453,7.139q2.449,2.811,7.21,2.812a12.793,12.793,0,0,0,4.326-.865c1.427-.52,9.471-4.3,12.159-5.582a15.268,15.268,0,0,0,1.4,1.76,14.628,14.628,0,0,0,5.3,3.569,19.118,19.118,0,0,0,7.175,1.262,17.026,17.026,0,0,0,7.21-1.335,41.755,41.755,0,0,0,7.762-4.953ZM89.7,191.513a8.761,8.761,0,0,1,5.118-1.55q5.552,0,8.509,6.49H85.909A11.911,11.911,0,0,1,89.7,191.513Z" transform="translate(-48.234 -171.054)" fill="#fff"/>
        <path id="Trazado_8" data-name="Trazado 8" d="M230.568,230.476V238h5.985V223.219c-3.223,3.878-5.985,7.257-5.985,7.257Z" transform="translate(-129.762 -191.405)" fill="#aadb1e"/>
        <path id="Trazado_9" data-name="Trazado 9" d="M236.553,187.112V165.675l-5.985,1.875v29.875s2.693-3.328,5.985-7.192Z" transform="translate(-129.762 -165.675)" fill="#00bfb2"/>
        <path id="Trazado_10" data-name="Trazado 10" d="M370.2,200.34a17.221,17.221,0,0,0-3.533-5.264,16.689,16.689,0,0,0-23.651,0,16.647,16.647,0,0,0-3.5,5.264,16.071,16.071,0,0,0-1.262,6.309,17.034,17.034,0,0,0,.184,2.391,121.774,121.774,0,0,1-10.968,6.983,13.292,13.292,0,0,1-6.093,1.3,9.93,9.93,0,0,1-7.066-2.632,12.266,12.266,0,0,1-3.462-7.679h25.165a24.352,24.352,0,0,0-1.189-6.743,17.207,17.207,0,0,0-2.956-5.479,13.836,13.836,0,0,0-4.723-3.714,14.663,14.663,0,0,0-6.49-1.371,18.694,18.694,0,0,0-6.814,1.19,14.9,14.9,0,0,0-5.227,3.353A14.634,14.634,0,0,0,305.3,199.4a18.192,18.192,0,0,0-1.154,6.6,20.013,20.013,0,0,0,1.154,6.958,15.841,15.841,0,0,0,3.318,5.444,14.613,14.613,0,0,0,5.3,3.57,19.117,19.117,0,0,0,7.174,1.262,17.022,17.022,0,0,0,7.211-1.335c3.456-1.577,9.277-5.94,11.782-7.733a16.2,16.2,0,0,0,2.932,4.02,16.8,16.8,0,0,0,23.651,0,16.867,16.867,0,0,0,3.533-5.191,16.077,16.077,0,0,0,0-12.655Zm-54.876-3.461a8.762,8.762,0,0,1,5.119-1.55q5.551,0,8.509,6.49h-17.45A11.709,11.709,0,0,1,315.327,196.878Zm48.711,13.628a10.7,10.7,0,0,1-2.2,3.209,10.322,10.322,0,0,1-3.172,2.163,9.206,9.206,0,0,1-3.75.793v.072a9.192,9.192,0,0,1-3.75-.794,10.274,10.274,0,0,1-3.172-2.163,10.226,10.226,0,0,1-2.957-7.21,9.7,9.7,0,0,1,.829-3.966,11.39,11.39,0,0,1,2.164-3.28,9.6,9.6,0,0,1,3.136-2.2,9.218,9.218,0,0,1,3.75-.793,9.389,9.389,0,0,1,3.821.793,10.029,10.029,0,0,1,3.172,2.2,10.541,10.541,0,0,1,2.164,3.28,10.106,10.106,0,0,1,.793,3.966A9.454,9.454,0,0,1,364.038,210.506Z" transform="translate(-162.663 -176.419)" fill="#fff"/>
        <path id="Trazado_11" data-name="Trazado 11" d="M237.008,191.445c-.783.282-3.981,2-5.2,4.415h0a9.653,9.653,0,0,0-4.9-4.882,5.512,5.512,0,0,0-2.043-.47c-2.09,0-4.656-.281-9.409,4.956-1.657,1.826-3.415,3.851-5.03,5.746-3.292,3.865-5.984,7.192-5.984,7.192a28.2,28.2,0,0,1-2.022,2.366,26.207,26.207,0,0,1-6.675,5.105v.02a15.4,15.4,0,0,1-5.941,1.372,11.633,11.633,0,0,1-7.57-2.848,9.778,9.778,0,0,1-2.416-3.28,10.168,10.168,0,0,1-.9-4.327,9.9,9.9,0,0,1,.9-4.146,12.03,12.03,0,0,1,2.344-3.461,10.941,10.941,0,0,1,3.353-2.344,9.6,9.6,0,0,1,4-.866,12.659,12.659,0,0,1,3.858.721,22.007,22.007,0,0,1,4.65,2.235l1.514-6.129-2.524-1.01q-1.081-.433-2.307-.794a19.569,19.569,0,0,0-2.776-.576,26.086,26.086,0,0,0-3.569-.216,18.345,18.345,0,0,0-6.922,1.226,13.86,13.86,0,0,0-5.084,3.461,15.274,15.274,0,0,0-3.137,5.264,19.4,19.4,0,0,0-1.081,6.562,17.869,17.869,0,0,0,1.19,6.525,15.506,15.506,0,0,0,3.424,5.336,16.146,16.146,0,0,0,5.336,3.569,17.763,17.763,0,0,0,6.923,1.3,23.642,23.642,0,0,0,4.9-.5,8.343,8.343,0,0,0,1.92-.586l0,.042a18.343,18.343,0,0,0,7.153-4.985c.524-.577,1-1.147,1.452-1.71,0,0,2.762-3.379,5.984-7.257,2.219-2.671,4.658-5.579,6.564-7.783,3.2-3.7,5.11-3.69,5.862-3.7,2.079-.04,3.735,1.261,4.056,3.863a7.479,7.479,0,0,1,.067.931v21.474h5.985V202.91a1.409,1.409,0,0,1,.066-.431,9.571,9.571,0,0,1,4.009-5.223c1.586-.9,4.614-.564,5.408-.325a16.547,16.547,0,0,1,1.911.685c.374.168.227-.072.369-.006l3.2-5.011A11.764,11.764,0,0,0,237.008,191.445Zm-10.032,18.727c0-.353,0-1.089,0-1.744C226.98,209.082,226.978,209.819,226.976,210.172Z" transform="translate(-103.636 -176.653)" fill="#fff"/>
        <circle id="Elipse_2" data-name="Elipse 2" cx="4.882" cy="4.882" r="4.882" transform="translate(208.153 36.876)" fill="#fff"/>
      </g>
    </g>
    <g id="Grupo_9" data-name="Grupo 9" transform="translate(85.557 131.992)">
      <g id="Grupo_7" data-name="Grupo 7" transform="translate(14.004 3.842)">
        <path id="Trazado_12" data-name="Trazado 12" d="M147.818,173.731c-.3,1.933,3.337.283,6.071,0a35.208,35.208,0,0,1,4.643-.189l-8.783-2.088A3.81,3.81,0,0,0,147.818,173.731Z" transform="translate(-144.081 -153.48)" fill="#aadb1e"/>
        <path id="Trazado_13" data-name="Trazado 13" d="M171.223,147.624a12.067,12.067,0,0,1-1.015-7.036,1.411,1.411,0,0,0-1.757-1.6,5.04,5.04,0,0,0-3,3.408c-1.237,3.574.206,8.8.206,8.8H147.13a7.413,7.413,0,0,0-3.9,1.064,3.85,3.85,0,0,0-2.054,4.3,1.2,1.2,0,0,0,1.538.89,14.772,14.772,0,0,1,4.022-.536L155.527,159a25.242,25.242,0,0,0,8.548,2.365c3.437.153,6.736-.069,9.9-3.23a49.492,49.492,0,0,0,3.986-4.536S173.353,151.679,171.223,147.624Z" transform="translate(-141.072 -138.942)" fill="#00bfb2"/>
      </g>
      <g id="Grupo_8" data-name="Grupo 8" transform="translate(0)">
        <path id="Trazado_14" data-name="Trazado 14" d="M146.572,142.2a7.411,7.411,0,0,0,3.895-1.064,3.849,3.849,0,0,0,2.054-4.3,1.2,1.2,0,0,0-1.538-.891,14.741,14.741,0,0,1-4.022.536l-8.787-2.088a25.275,25.275,0,0,0-8.548-2.365c-3.437-.152-6.736.069-9.9,3.23a49.53,49.53,0,0,0-3.986,4.536s4.6,1.925,6.735,5.979a12.068,12.068,0,0,1,1.015,7.036,1.412,1.412,0,0,0,1.758,1.6,5.043,5.043,0,0,0,3-3.408c1.237-3.574-.206-8.8-.206-8.8Z" transform="translate(-115.743 -131.992)" fill="#aadb1e"/>
        <path id="Trazado_15" data-name="Trazado 15" d="M167.033,135.243c.3-1.933-3.337-.283-6.07,0a35.312,35.312,0,0,1-4.647.188l8.787,2.088A3.808,3.808,0,0,0,167.033,135.243Z" transform="translate(-133.885 -133.032)" fill="#00bfb2"/>
      </g>
    </g>
  </g>
</svg>
