<svg id="Grupo_1604" data-name="Grupo 1604" xmlns="http://www.w3.org/2000/svg" xmlns:xlink="http://www.w3.org/1999/xlink" width="60.295" height="26.431" viewBox="0 0 60.295 26.431">
  <defs>
    <clipPath id="clip-path">
      <rect id="Rectángulo_747" data-name="Rectángulo 747" width="60.295" height="26.431" fill="none"/>
    </clipPath>
  </defs>
  <g id="Grupo_1603" data-name="Grupo 1603" clip-path="url(#clip-path)">
    <path id="Trazado_1181" data-name="Trazado 1181" d="M14.278,95.716a8.846,8.846,0,0,1-.758.555,8.356,8.356,0,0,1-1.493.8,7.782,7.782,0,0,1-1.62.5,8.65,8.65,0,0,1-1.746.17,8.755,8.755,0,0,1-3.32-.623,8.453,8.453,0,0,1-2.8-1.88A8.2,8.2,0,0,1,0,89.191a8.263,8.263,0,0,1,.632-3.274,8.563,8.563,0,0,1,1.907-2.786,8.691,8.691,0,0,1,2.8-1.892,8.524,8.524,0,0,1,2.39-.578H8.65a9.648,9.648,0,0,1,1.746.158,8.41,8.41,0,0,1,1.62.51,10.672,10.672,0,0,1,1.493.8q.414.283.758.555l-1.643,1.62a6.386,6.386,0,0,0-1.528-.918,6.353,6.353,0,0,0-2.424-.464,6.436,6.436,0,0,0-2.435.464,6.584,6.584,0,0,0-2.045,1.382A6.213,6.213,0,0,0,2.8,86.8H2.791a6.109,6.109,0,0,0,1.4,6.831A5.883,5.883,0,0,0,6.238,95a6.432,6.432,0,0,0,2.435.464A6.522,6.522,0,0,0,11.119,95a5.779,5.779,0,0,0,1.528-.906,8.584,8.584,0,0,0,.674-.6Z" transform="translate(0 -72.478)" fill="#353533"/>
    <path id="Trazado_1182" data-name="Trazado 1182" d="M170.281,97.489h-2.413l-1.246-2.774h-7.159l-1.246,2.774H155.8l7.238-17ZM163.036,92.9h2.758q-.691-1.585-1.376-3.41t-1.365-3.421q-.691,1.6-1.388,3.421T160.29,92.9Z" transform="translate(-139.997 -72.321)" fill="#353533"/>
    <path id="Trazado_1183" data-name="Trazado 1183" d="M321.635,92.873l8.235-12.608V97.291h-2.254V87.719l-5.981,9.187-5.981-9.187v9.571H313.4V80.266Z" transform="translate(-281.604 -72.122)" fill="#353533"/>
    <path id="Trazado_1184" data-name="Trazado 1184" d="M507.822,81.716v2.243H500.31v5.1h5.967V91.3H500.31v5.1h7.512v2.242h-9.766V81.716Z" transform="translate(-447.527 -73.426)" fill="#353533"/>
    <path id="Trazado_1185" data-name="Trazado 1185" d="M370.836,3.011A3.011,3.011,0,1,1,367.826,0a3.011,3.011,0,0,1,3.01,3.011" transform="translate(-327.804)" fill="#353533"/>
    <path id="Trazado_1186" data-name="Trazado 1186" d="M327.05,74.253h13.691L333.9,84.725Z" transform="translate(-293.87 -66.72)" fill="#ec0127"/>
  </g>
</svg>
