<svg xmlns="http://www.w3.org/2000/svg" width="106.982" height="106.982" viewBox="0 0 106.982 106.982">
  <g id="Grupo_1385" data-name="Grupo 1385" transform="translate(-38.039 -19.976)">
    <path id="Trazado_37" data-name="Trazado 37" d="M740.495,73.489A53.491,53.491,0,1,1,687,20a53.491,53.491,0,0,1,53.491,53.491" transform="translate(-595.474 -0.022)" fill="#59bcb1"/>
    <g id="Grupo_1384" data-name="Grupo 1384">
      <path id="Trazado_38" data-name="Trazado 38" d="M711.825,63.677a2.2,2.2,0,0,0-1.666-.614c-1.935.073-4.746,2.214-8.6,6.545C699.7,71.7,697.508,74,696.1,75.458c2.4-4.439,8.656-16.066,10.177-19.251,1.072-2.245,2.742-6.343,1.884-8.566a2.169,2.169,0,0,0-1.227-1.289c-2.544-1.039-5.323,2.635-9.264,9.333-2.522,4.287-6.264,9.619-8.515,12.747.943-3.109,2.45-8.008,3.829-12.221l.039-.117c3.538-10.807,5.153-15.739,1.982-17.019-2.434-.982-5.212,3.768-9.191,12.3-2.453,5.259-4.991,10.98-6.271,13.886.632-3.244,1.862-9.744,2.627-14.981,1.161-7.954.862-11.278-1.07-11.858-2.495-.75-4.2,2.858-6.145,8.922-1.17,3.651-2.5,8.466-3.479,11.981-.435,1.571-.8,2.906-1.067,3.8A26.054,26.054,0,0,1,665.795,72a34.081,34.081,0,0,1-.345-3.53c-.26-3.907-.585-8.771-3.2-11.806-3.78-4.394-7.882-3.459-9.991-2.511a1.71,1.71,0,0,0-.485,2.785c.586.571,1.209,1.235,1.852,1.973,1.658,1.908,3.111,10.106,2.428,17.426-.163,1.742-.471,3.41-.768,5.023-.916,4.966-1.864,10.1,1.214,18.121,2.636,6.87,10.174,9.8,16.232,12.158.55.215,1.088.424,1.608.63,8.081,3.214,10.1,8.758,10.119,8.812l1.073-.288c-.009-.046-.854-4.687,2.645-11.99,3.634-7.585,10.349-18.6,15.253-26.652.83-1.362,1.677-2.716,2.5-4.034,5.01-8.011,7.753-12.631,5.889-14.435M698.631,56.25c2.978-5.061,6-9.643,7.882-8.867a1.068,1.068,0,0,1,.61.659c.51,1.319-.182,4.193-1.85,7.686s-9.041,17.15-10.739,20.288a38.338,38.338,0,0,0-6.019-4.753l-.028-.018c1.431-1.945,6.827-9.358,10.144-15m-11.808-4.4c1.6-3.424,5.844-12.518,7.766-11.741,2.206.891.491,6.13-2.624,15.641l-.038.116C690.076,61.519,688,68.4,687.351,70.558a50.709,50.709,0,0,0-7.4-3.452c.853-1.95,3.925-8.938,6.871-15.258m18.169,25.674c-.827,1.322-1.675,2.679-2.508,4.045-4.916,8.067-11.648,19.115-15.306,26.75a26.811,26.811,0,0,0-2.841,10.187,20.157,20.157,0,0,0-9.581-7.274c-.523-.208-1.063-.418-1.616-.633-5.853-2.277-13.137-5.11-15.6-11.52-2.965-7.728-2.088-12.484-1.159-17.52.3-1.637.615-3.33.782-5.122.669-7.164-.616-15.867-2.7-18.259-.663-.762-1.307-1.448-1.916-2.04a.6.6,0,0,1-.173-.537.582.582,0,0,1,.339-.436c2.23-1,5.547-1.431,8.69,2.223,2.368,2.753,2.679,7.411,2.928,11.153a34.667,34.667,0,0,0,.363,3.675,14.325,14.325,0,0,0,4.573,7.552c2.183,1.69,3.763,1.118,3.829,1.092l-.386-1.044c-.045.015-1.11.35-2.762-.928a13.462,13.462,0,0,1-3.8-5.588,26.391,26.391,0,0,0,5.324-9.855c.264-.9.635-2.24,1.072-3.817.972-3.507,2.3-8.309,3.466-11.939,1.309-4.089,3.035-8.711,4.765-8.195,1.17.351,1.267,3.927.289,10.63-.9,6.166-2.45,14.1-2.9,16.343-2.1-.721-3.518-1.084-3.551-1.092l-.272,1.079A54.112,54.112,0,0,1,687.92,72.2,38.766,38.766,0,0,1,697.7,81.23l.908-.645a32.586,32.586,0,0,0-2.765-3.261c1.057-1.08,4.1-4.212,6.555-6.977,4.468-5.026,6.711-6.13,7.806-6.171a1.09,1.09,0,0,1,.85.3c1.307,1.265-2.606,7.523-6.059,13.044" transform="translate(-595.474 -0.022)" fill="#fff"/>
      <path id="Trazado_39" data-name="Trazado 39" d="M719.422,65.606a.547.547,0,0,1-.09-.007.558.558,0,0,1-.46-.639c.01-.067,1.025-6.892-4.777-16.4-5.814-9.524-13.488-9.053-13.812-9.028a.557.557,0,0,1-.088-1.11c.35-.029,8.663-.578,14.851,9.558,6.035,9.886,4.972,16.863,4.924,17.155a.556.556,0,0,1-.548.466" transform="translate(-595.474 -0.022)" fill="#fff"/>
      <path id="Trazado_40" data-name="Trazado 40" d="M724.435,57.267h-.016a.558.558,0,0,1-.541-.571c0-.053.078-5.381-4.806-13.12-4.85-7.684-10.72-8.292-10.779-8.3a.557.557,0,1,1,.1-1.109c.262.024,6.481.667,11.621,8.811C725.1,51.038,725,56.5,724.991,56.727a.556.556,0,0,1-.556.54" transform="translate(-595.474 -0.022)" fill="#fff"/>
    </g>
  </g>
</svg>
