<svg id="Grupo_2064" data-name="Grupo 2064" xmlns="http://www.w3.org/2000/svg" xmlns:xlink="http://www.w3.org/1999/xlink" width="119.463" height="79.843" viewBox="0 0 119.463 79.843">
  <defs>
    <clipPath id="clip-path">
      <rect id="Rectángulo_795" data-name="Rectángulo 795" width="119.463" height="79.843" fill="none"/>
    </clipPath>
  </defs>
  <g id="Grupo_1779" data-name="Grupo 1779" clip-path="url(#clip-path)">
    <path id="Trazado_1283" data-name="Trazado 1283" d="M97.947,13.931a40.8,40.8,0,0,1-5.883-.59c-.018-.01-.036,0-.054-.01a25.609,25.609,0,0,1-5.866-1.814c-1.2-.534-2.567-1.173-4.04-1.855C75.064,6.407,63.289.956,60.416,1.7c-1.874.481-6.135,4.009-9.895,7.121a78.076,78.076,0,0,1-9.408,7.114,21.112,21.112,0,0,1-4.322,1.711l-.043.014c-.668.2-1.338.387-2,.568-4.082,1.114-7.938,2.167-9.485,6.138a65.407,65.407,0,0,0-2.11,9.327c-1.974,10.632-4.429,23.862-11.208,27A44.691,44.691,0,0,1,2.666,64.1,50.967,50.967,0,0,0,32.874,77.334c14.685,1.049,22.064-2.082,29.2-5.11a73.068,73.068,0,0,1,7.789-2.957c7.262-2.161,15.939.427,20.469,2.161a1.462,1.462,0,0,0,1.976-1.548c-.492-3.912-1.985-10.665-6.375-11.956-4.525-1.332-9.076-.245-13.89.908a55.507,55.507,0,0,1-8.109,1.516C55.69,61.056,49.751,50.175,48.328,42.6c-1.448-7.707.9-13.13,8.372-19.353,1.3-1.077,2.394-2.047,3.362-2.9,4.757-4.211,6.726-5.953,13.418-3.6,1.737.611,3.181,1.084,4.511,1.485a45.065,45.065,0,0,0,21.265-.618c1.645-1.424,1.727-2.908,1.486-3.425a14.453,14.453,0,0,0-2.8-.251" transform="translate(0.535 0.326)" fill="#fff"/>
    <path id="Trazado_1284" data-name="Trazado 1284" d="M42.935,7.2c1.654-1.372,3.277-2.712,4.776-3.878-1.56-.369-3.651-.863-4.951-1.173-1.394-.33-2.435,1.258-4.852,6.2a27.19,27.19,0,0,1-3.729,5.542A84.369,84.369,0,0,0,42.935,7.2Z" transform="translate(6.858 0.422)" fill="#fff"/>
    <path id="Trazado_1285" data-name="Trazado 1285" d="M78.684,10.32A4.9,4.9,0,0,0,80.4,8.184l0,0c.1-.215.316-.741.12-.993-.227-.285-1.262-.7-3.589-.219a29.588,29.588,0,0,1-6.943.12c1.251.579,2.423,1.12,3.459,1.586a23.487,23.487,0,0,0,5.237,1.636" transform="translate(14.043 1.356)" fill="#fff"/>
    <path id="Trazado_1286" data-name="Trazado 1286" d="M58.507,25.091c1.315-1.1,2.423-2.076,3.4-2.942,4.614-4.082,5.854-5.181,11.452-3.215,1.229.432,2.309.794,3.316,1.115,18.99,3.8,25.736-2.116,25.736-2.116a4.523,4.523,0,0,0,.659-4.262l-.011.006c-.57-1.221-2.136-1.29-4.5-1.39-.961-.042-2.106-.095-3.37-.229A8.39,8.39,0,0,0,96.218,10.4a2.767,2.767,0,0,0-.108-3.063c-.9-1.154-2.874-1.486-5.545-.937-3.262.671-11.1-.36-12.145-.5C70.023,2.106,63.2-.589,60.447.111A13.51,13.51,0,0,0,56.629,2.2c-1.215-.286-4.7-1.109-6.562-1.552-3.173-.753-4.815,2.605-7.09,7.258a30.077,30.077,0,0,1-6.5,8.254c-.567.166-1.142.325-1.73.48-4.373,1.195-8.9,2.43-10.806,7.324a65.853,65.853,0,0,0-2.212,9.683C19.944,43.3,17.491,56.506,11.64,59.223,3.524,62.984,1.29,62.681,1.257,62.681A.989.989,0,0,0,.25,64.291,51.693,51.693,0,0,0,33.268,79.636c1.985.142,3.842.208,5.6.208,11.627,0,18.429-2.882,24.522-5.469a71.56,71.56,0,0,1,7.581-2.882c6.695-1.994,14.9.465,19.2,2.11a3.443,3.443,0,0,0,4.645-3.646c-.52-4.1-1.76-8.98-4.633-11.739a7.611,7.611,0,0,0-3.147-1.866c-.143-.043-.287-.076-.431-.114a19.63,19.63,0,0,0-7.216-.421c-.876.1-1.751.231-2.621.391-1.561.288-3.11.659-4.642,1.025A54.159,54.159,0,0,1,64.3,58.7c-6.628.569-12.184-9.184-13.491-16.143s.777-11.705,7.695-17.468M90.974,8.334c2.327-.48,3.363-.066,3.59.219.2.252-.022.778-.121.993v0a4.9,4.9,0,0,1-1.713,2.136A23.448,23.448,0,0,1,87.49,10.04c-1.036-.466-2.208-1.007-3.459-1.586a29.579,29.579,0,0,0,6.942-.12m-46.207.438c2.417-4.945,3.458-6.534,4.852-6.2,1.3.31,3.392.8,4.951,1.173-1.5,1.166-3.122,2.506-4.776,3.878a84.369,84.369,0,0,1-8.756,6.695,27.19,27.19,0,0,0,3.729-5.542m4.1,34.154c1.423,7.576,7.362,18.456,15.608,17.749a55.507,55.507,0,0,0,8.109-1.516c4.815-1.153,9.365-2.239,13.89-.908,4.391,1.291,5.883,8.044,6.375,11.956a1.462,1.462,0,0,1-1.976,1.548c-4.53-1.734-13.207-4.322-20.469-2.161a72.97,72.97,0,0,0-7.789,2.957c-7.139,3.028-14.518,6.159-29.2,5.11A50.967,50.967,0,0,1,3.2,64.429a44.742,44.742,0,0,0,9.276-3.412c6.779-3.141,9.234-16.371,11.208-27a65.244,65.244,0,0,1,2.11-9.327c1.546-3.971,5.4-5.024,9.485-6.138.665-.181,1.335-.37,2-.568l.043-.014a21.112,21.112,0,0,0,4.322-1.711,78.171,78.171,0,0,0,9.408-7.114c3.759-3.112,8.02-6.64,9.895-7.121C63.824,1.282,75.6,6.733,82.639,9.99c1.473.682,2.843,1.321,4.04,1.855a25.59,25.59,0,0,0,5.866,1.814c.018.006.036,0,.054.01a40.8,40.8,0,0,0,5.883.59,14.461,14.461,0,0,1,2.8.251c.239.517.158,2-1.486,3.425a45.065,45.065,0,0,1-21.265.618c-1.332-.4-2.774-.874-4.511-1.485-6.692-2.351-8.662-.609-13.418,3.6-.968.856-2.064,1.826-3.362,2.9-7.472,6.223-9.82,11.646-8.372,19.353" transform="translate(0 0)" fill="#2d2062"/>
    <path id="Trazado_1287" data-name="Trazado 1287" d="M79.972,29.005c-.06-.2-.095-.357-.155-.5-.213-.519-.436-1.033-.65-1.551a.533.533,0,0,1,.328-.792q1.313-.537,2.631-1.063a.548.548,0,0,1,.827.341c.2.472.389.95.588,1.423a2.582,2.582,0,0,0,.193.387.579.579,0,0,0,.591.275,10.352,10.352,0,0,1,1.323,0c.456.026.617-.05.8-.48.214-.509.423-1.021.632-1.532s.418-.6.931-.384l2.551,1.064a.525.525,0,0,1,.324.79c-.2.489-.411.975-.61,1.465a4.156,4.156,0,0,0-.138.435.507.507,0,0,0,.161.521c.382.378.759.761,1.138,1.143a.475.475,0,0,0,.544.148q.881-.349,1.76-.707c.516-.21.719-.126.931.39l1.037,2.537a.528.528,0,0,1-.327.807c-.474.2-.951.387-1.424.585a3.248,3.248,0,0,0-.427.217.593.593,0,0,0-.279.594c.02.456.019.914,0,1.37a.6.6,0,0,0,.39.694c.533.239,1.067.483,1.617.674a.6.6,0,0,1,.426.873q-.555,1.344-1.121,2.682a.492.492,0,0,1-.7.276c-.5-.2-.991-.415-1.489-.616a2.937,2.937,0,0,0-.5-.155.531.531,0,0,0-.531.2c-.315.342-.641.676-.985.989-.315.287-.376.435-.213.84.214.535.439,1.067.662,1.6.2.469.1.693-.36.885q-1.289.529-2.578,1.06a.534.534,0,0,1-.806-.334c-.214-.517-.42-1.04-.644-1.554s-.337-.564-.88-.553c-.433.008-.867,0-1.3,0a.562.562,0,0,0-.652.409c-.229.538-.449,1.081-.671,1.622-.2.481-.42.575-.9.375q-1.277-.533-2.553-1.063a.544.544,0,0,1-.334-.826c.208-.5.423-1,.627-1.508a2.076,2.076,0,0,0,.118-.415.535.535,0,0,0-.2-.509q-.519-.486-1.007-1a.635.635,0,0,0-.851-.2c-.549.226-1.1.457-1.642.686a.529.529,0,0,1-.79-.324q-.551-1.331-1.1-2.665a.517.517,0,0,1,.3-.762c.493-.213.993-.409,1.488-.616a2.555,2.555,0,0,0,.346-.168.6.6,0,0,0,.325-.593c-.024-.473-.012-.947,0-1.42.006-.417-.067-.552-.457-.718-.546-.232-1.1-.453-1.644-.681a.532.532,0,0,1-.334-.8c.363-.866.722-1.731,1.084-2.6.184-.437.418-.529.855-.346.509.214,1.018.429,1.531.634.491.2.627.149.988-.233.313-.333.657-.638.975-.965a1.974,1.974,0,0,0,.229-.351m10.212,6.784a5.18,5.18,0,1,0-5.02,5.166,5.173,5.173,0,0,0,5.02-5.166" transform="translate(14.893 5.019)" fill="#2da89d"/>
    <path id="Trazado_1288" data-name="Trazado 1288" d="M94.865,41.96l2.656,1.223A17.624,17.624,0,0,0,88.053,21.32l.861-1.938A19.822,19.822,0,0,1,99.489,44.088l1.135.521c.378.174.755.351,1.171.545L95.8,49.486c-.313-2.513-.624-5-.939-7.526" transform="translate(17.668 3.889)" fill="#2da89d"/>
    <path id="Trazado_1289" data-name="Trazado 1289" d="M71.219,33.373l-2.4-.977a17.687,17.687,0,0,0,9.633,19.9c-.3.636-.6,1.256-.894,1.877A19.707,19.707,0,0,1,66.833,31.585l-2.676-1.1,5.8-4.594c.424,2.5.842,4.966,1.267,7.478" transform="translate(12.873 5.196)" fill="#a7be17"/>
    <path id="Trazado_1290" data-name="Trazado 1290" d="M72.287,26.382c-.2.083-.382.152-.558.226s-.367.158-.556.228a.3.3,0,0,1-.444-.191q-.3-.72-.588-1.446c-.1-.252-.05-.36.205-.467q.411-.171.824-.337a.443.443,0,0,0,.323-.516,2.659,2.659,0,0,1,0-.626.411.411,0,0,0-.31-.473c-.283-.109-.564-.228-.844-.348-.252-.108-.3-.222-.192-.473q.29-.7.585-1.4c.119-.277.223-.318.508-.2.3.122.608.249.911.372a.34.34,0,0,0,.424-.119,5.09,5.09,0,0,1,.529-.526.344.344,0,0,0,.118-.443c-.126-.3-.255-.605-.377-.909-.1-.253-.056-.371.191-.475.473-.2.946-.394,1.423-.585.256-.1.367-.053.472.2.115.273.223.55.34.822.127.3.209.34.532.319a4.013,4.013,0,0,1,.576.008c.287.025.389-.024.5-.293s.223-.55.337-.822.233-.33.5-.219q.7.286,1.4.581c.246.1.294.226.193.477q-.169.423-.348.843a.411.411,0,0,0,.139.568,1.653,1.653,0,0,1,.247.229.776.776,0,0,0,1.025.22c.193-.077.383-.164.578-.239a.292.292,0,0,1,.441.184c.209.495.411.992.616,1.486a.289.289,0,0,1-.19.42c-.288.122-.58.235-.869.353a.416.416,0,0,0-.3.479,3.762,3.762,0,0,1,0,.7.363.363,0,0,0,.252.412c.289.115.574.243.866.349.214.078.3.221.226.426q-.306.8-.645,1.576c-.072.166-.225.184-.39.113-.287-.122-.581-.232-.866-.359a.429.429,0,0,0-.587.14,3.307,3.307,0,0,1-.481.471.348.348,0,0,0-.108.448c.132.31.251.624.384.934a.279.279,0,0,1-.163.425c-.5.205-.989.417-1.488.616-.219.086-.347.025-.441-.195-.124-.287-.239-.578-.359-.866a.4.4,0,0,0-.48-.293,2.214,2.214,0,0,1-.648,0,.382.382,0,0,0-.462.279c-.12.3-.249.591-.365.888a.294.294,0,0,1-.444.176c-.49-.2-.979-.4-1.465-.609-.215-.091-.259-.221-.169-.447.116-.291.24-.578.36-.866a.406.406,0,0,0-.133-.546,6.821,6.821,0,0,1-.509-.511,1.722,1.722,0,0,0-.246-.164M78.934,23.6a2.872,2.872,0,1,0-2.949,2.868A2.872,2.872,0,0,0,78.934,23.6" transform="translate(14.064 3.536)" fill="#a7be17"/>
    <path id="Trazado_1291" data-name="Trazado 1291" d="M82.15,51.257c.228-.537-.066-.832-.621-1a.335.335,0,0,0-.369.037c-.19.161-.383.317-.575.475a.2.2,0,0,1-.324-.038c-.231-.279-.466-.552-.714-.815-.149-.157-.162-.285.018-.415.02-.014.037-.03.056-.046.6-.505.593-.5.387-1.256a.294.294,0,0,0-.318-.253c-.233-.008-.466-.032-.7-.043a.218.218,0,0,1-.234-.265l.072-1.154a.22.22,0,0,1,.27-.231c.208.016.418.02.626.042a.344.344,0,0,0,.429-.249,1.405,1.405,0,0,1,.114-.239c.2-.4.2-.394-.091-.72-.1-.113-.193-.235-.3-.346a.235.235,0,0,1,.02-.39c.274-.237.548-.472.818-.712.157-.139.287-.144.425.031s.294.34.447.507a.285.285,0,0,0,.367.074,2.023,2.023,0,0,1,.454-.154.314.314,0,0,0,.276-.335c.012-.225.036-.449.042-.674.006-.182.107-.24.267-.231.384.022.77.049,1.154.074.152.011.238.086.227.247-.016.233-.032.465-.048.7a.311.311,0,0,0,.232.369.8.8,0,0,1,.175.08c.56.323.433.256.894-.126s.468-.4.87.06c.158.181.311.369.475.545s.156.3-.022.445c-.15.121-.291.253-.435.382a.728.728,0,0,0-.07.066c-.28.331.091.591.113.891.006.073.193.169.309.191a4.819,4.819,0,0,0,.672.052c.163.007.227.092.219.25-.023.384-.042.77-.065,1.155a.225.225,0,0,1-.264.241q-.337-.02-.674-.047a.316.316,0,0,0-.383.24,1.469,1.469,0,0,1-.122.261c-.195.373-.2.373.085.7q.157.184.317.364a.23.23,0,0,1-.025.373c-.28.241-.56.483-.836.728a.246.246,0,0,1-.409-.031c-.127-.155-.264-.3-.4-.454a.517.517,0,0,0-.067-.068c-.334-.265-.591.1-.891.124-.072.006-.16.2-.182.316a4.463,4.463,0,0,0-.052.647c-.007.157-.077.243-.238.234-.393-.02-.786-.037-1.179-.068-.319-.026-.211-.277-.231-.537m1.112-6.007a2.113,2.113,0,1,0,2.119,2.092,2.13,2.13,0,0,0-2.119-2.092" transform="translate(15.803 8.599)" fill="#a7be17"/>
    <path id="Trazado_1292" data-name="Trazado 1292" d="M86.022,34.4A2.419,2.419,0,1,1,83.6,31.961,2.42,2.42,0,0,1,86.022,34.4" transform="translate(16.29 6.413)" fill="#2da89d"/>
  </g>
</svg>
