<svg xmlns="http://www.w3.org/2000/svg" width="78.05" height="121.881" viewBox="0 0 78.05 121.881">
  <path id="Trazado_1237" data-name="Trazado 1237" d="M308.333,408.566c-5.875,7.544-6.412,11.8-7.034,16.733a46,46,0,0,1-2.046,9.673c-4.287,12.82-14.456,22.28-30.225,28.12-15.091,5.59-29.1,1.557-33.022.193,2.9-3.069,12.023-13.584,10.982-23.25-.529-4.913-3.041-9.207-5.95-14.179-3.727-6.37-7.951-13.591-9.084-24.166-1.425-13.3-2.451-26.953.744-27.412a2.249,2.249,0,0,1,1.768.275c.9.732,1.033,2.98,1.205,5.828a65.539,65.539,0,0,0,.766,7.448c1.968,11.412,6.2,11.836,8.01,12.016a.981.981,0,0,0,.851-.325c.542-.606.356-1.6-.371-4.976-1.07-4.962-3.062-14.2-1.658-24.243,2.182-15.624,3.709-22.3,7.511-23.174a1.432,1.432,0,0,1,1.407.221c1.915,1.694.992,10.461.177,18.2-1.274,12.111,4.009,22.473,4.9,24.126-.437,4.3-.676,7.264-.682,7.345a.778.778,0,0,0,.714.838q.032,0,.063,0a.778.778,0,0,0,.775-.717c.018-.226,1.83-22.737,4.709-34.253,2.838-11.35,8.314-18.588,10.991-18.781,1.328-.1,1.826.306,2.084.617.964,1.161.832,4.112-.394,8.769-.529,2.01-1.115,3.968-1.681,5.861-1.877,6.271-3.649,12.195-3.3,19.4.316,6.488,1.547,9.4,2.364,10.647a32.991,32.991,0,0,0-3.91,2.9.779.779,0,0,0,1.044,1.156c.082-.074,8.237-7.344,17.48-7.344h.016c4.491,0,13.607,3.953,14.431,10.135a23.25,23.25,0,0,0,1.655,6.614.843.843,0,0,1,.028.684.8.8,0,0,1-.463.451c-2.441.93-5.9.853-8.525-4.8-1.967-4.236-9.105-4.237-12.18-2.825-4.909,2.255-6.593,7.633-5.631,17.986.4,4.254,1.736,7.237,3.985,8.867,2.1,1.52,4.859,1.862,8.449,1.046,3.041-.691,5.523-5.587,7.924-10.322,1.808-3.567,3.678-7.256,5.283-7.969a5.132,5.132,0,0,1,5.807.947,1.206,1.206,0,0,1,.028,1.643" transform="translate(-230.592 -344.09)" fill="#00bfb2"/>
</svg>
