<svg xmlns="http://www.w3.org/2000/svg" xmlns:xlink="http://www.w3.org/1999/xlink" width="60.524" height="94.567" viewBox="0 0 60.524 94.567">
  <defs>
    <clipPath id="clip-path">
      <rect id="Rectángulo_693" data-name="Rectángulo 693" width="74.538" height="40.908" fill="none"/>
    </clipPath>
  </defs>
  <g id="Grupo_1752" data-name="Grupo 1752" transform="translate(563.607 -7416.748)">
    <g id="Grupo_1739" data-name="Grupo 1739" transform="translate(-642.607 7107.749)">
      <g id="Grupo_1397" data-name="Grupo 1397" transform="translate(130.025 329.028) rotate(90)">
        <g id="Grupo_1396" data-name="Grupo 1396" transform="translate(0 0)" clip-path="url(#clip-path)">
          <path id="Trazado_1058" data-name="Trazado 1058" d="M73.784,40.908a.708.708,0,0,1-.309-.071c-.1-.045-9.5-4.534-13.245-4.3A31.421,31.421,0,0,0,50.752,38.9c-3.594,1.339-6.989,2.6-11.348,1.533-13.2-3.243-14.271-5.191-14.271-7.225a3.823,3.823,0,0,1,.332-1.64H24.421a4.056,4.056,0,0,1-.789-.076,4.373,4.373,0,0,1-3.8-4.286,4.818,4.818,0,0,1,.744-2.732,4.555,4.555,0,0,1-2.41-1.24,3.743,3.743,0,0,1-1.124-2.685,4.442,4.442,0,0,1,1.24-3.185H4.981A4.987,4.987,0,0,1,1.392,16.32,4.526,4.526,0,0,1,0,12.746a4.121,4.121,0,0,1,1.263-3.2A5.318,5.318,0,0,1,4.971,8.409H28.618a7.906,7.906,0,0,1-1.312-1.026c-1.957-1.9-1.3-5.891-1.269-6.06a.715.715,0,0,1,.929-.557,15.344,15.344,0,0,0,8.518,0c4.768-1.537,13.267-.449,17.5.6,1.063.263,10.537,2.779,16,10.207,5.034,6.846,5.2,10.987,5.484,17.848l.028.677c.088,2.111,0,9.782,0,10.108a.715.715,0,0,1-.714.707M22.334,23.126a.714.714,0,0,1,.254,1.382c-.045.019-1.332.58-1.332,2.7a2.919,2.919,0,0,0,2.654,2.885,2.627,2.627,0,0,0,.511.048h2.7a.714.714,0,0,1,.232,1.39c-.067.027-.79.355-.79,1.679,0,.909,0,2.6,13.184,5.838,3.933.967,6.98-.169,10.508-1.484a33.053,33.053,0,0,1,9.888-2.453c3.354-.221,10.323,2.779,12.94,3.971.02-2.26.056-7.324-.01-8.925l-.028-.678c-.279-6.814-.432-10.567-5.207-17.061C62.671,5.391,53.655,3,52.644,2.748,48.56,1.739,40.409.677,35.921,2.124a16.465,16.465,0,0,1-8.564.229c-.081,1.216.013,3.1.944,4.006a8.114,8.114,0,0,0,5.247,2.051h.225A.714.714,0,0,1,33.8,9.837c-.023,0-.123,0-.285,0H4.942c-.023,0-.045,0-.068,0a3.929,3.929,0,0,0-2.655.775,2.764,2.764,0,0,0-.791,2.136,3.181,3.181,0,0,0,.9,2.5,3.613,3.613,0,0,0,2.524.7.741.741,0,0,1,.088-.006H20.967a.714.714,0,0,1,.138,1.415,3.3,3.3,0,0,0-2.639,3.2,2.283,2.283,0,0,0,.709,1.678,3.337,3.337,0,0,0,2.444.9Z" transform="translate(0 0)" fill="#00bfb2"/>
        </g>
      </g>
      <g id="Grupo_1400" data-name="Grupo 1400" transform="translate(79 309)">
        <g id="Grupo_1399" data-name="Grupo 1399" transform="translate(0)">
          <path id="Trazado_1059" data-name="Trazado 1059" d="M266.062,323.915l0,0-3.045-3.965c-3.237-4.213-10.742-3.9-16.727.7s-8.222,11.768-4.986,15.981l3.035,3.949a.073.073,0,0,0,.012.015,8.247,8.247,0,0,0,6.8,2.982c.218,0,.437-.006.659-.018a18.126,18.126,0,0,0,15.2-11.678c.99-3.058.654-5.887-.943-7.967M242.4,335.791c-2.773-3.609-.649-9.911,4.734-14.047a15.4,15.4,0,0,1,9.082-3.4,6.949,6.949,0,0,1,5.711,2.45l.479.623a9.344,9.344,0,0,0-1.227-.3,12.129,12.129,0,0,0-4.388.062,17.832,17.832,0,0,0-7.452,3.444,19.228,19.228,0,0,0-2.721,2.539,13.718,13.718,0,0,0-3.753,8.9c0,.121.006.24.012.359Zm23.3-4.334a16.756,16.756,0,0,1-13.96,10.727c-2.75.122-4.978-.719-6.291-2.429a5.68,5.68,0,0,1-.986-2.055,6.893,6.893,0,0,1-.215-1.663,12.339,12.339,0,0,1,3.441-8.011,18.017,18.017,0,0,1,2.494-2.317c.4-.3.8-.585,1.212-.85.126-.083.255-.155.384-.234.291-.178.583-.35.879-.508.143-.078.288-.149.432-.221.293-.147.589-.284.885-.411.134-.057.269-.115.4-.169.336-.133.671-.251,1.008-.357.093-.03.185-.064.278-.091a13.2,13.2,0,0,1,2.6-.5c.1-.008.191-.009.288-.015.331-.02.661-.029.985-.019l.25.01a9.833,9.833,0,0,1,1.1.118c.016,0,.032,0,.048.007a7.2,7.2,0,0,1,2.3.8,5.684,5.684,0,0,1,1.73,1.482h0c1.314,1.709,1.571,4.089.724,6.7" transform="translate(-239.82 -316.984)" fill="#aadb1e"/>
          <path id="Trazado_1060" data-name="Trazado 1060" d="M9.076,8.858A2.73,2.73,0,0,0,8.5,8.017a3.612,3.612,0,0,0-.817-.6A6.747,6.747,0,0,0,6.747,7c-.32-.114-.651-.216-.985-.3s-.638-.161-.944-.235q-.562-.129-1.109-.289A4.54,4.54,0,0,1,2.79,5.8,1.89,1.89,0,0,1,2.2,5.31a1,1,0,0,1-.19-.633,1.563,1.563,0,0,1,.611-1.251,2.473,2.473,0,0,1,.815-.409A4.131,4.131,0,0,1,4.639,2.86a3.956,3.956,0,0,1,.87.088,3.585,3.585,0,0,1,.71.233,3.757,3.757,0,0,1,.593.336c.188.132.368.272.538.418a.845.845,0,0,0,.528.243.528.528,0,0,0,.343-.13c.034-.028.076-.064.136-.118q.164-.156.247-.243a.6.6,0,0,0,.185-.413A.576.576,0,0,0,8.642,2.9c-.038-.043-.094-.1-.171-.18A5.02,5.02,0,0,0,6.954,1.679a5.624,5.624,0,0,0-1.4-.4V.709A.711.711,0,0,0,5.365.2.651.651,0,0,0,4.881,0H4.443a.6.6,0,0,0-.515.259.776.776,0,0,0-.13.45V1.26a5.348,5.348,0,0,0-1.2.283,3.944,3.944,0,0,0-1.225.712,3.118,3.118,0,0,0-.8,1.076A3.314,3.314,0,0,0,.3,4.7,2.7,2.7,0,0,0,.57,5.932a2.762,2.762,0,0,0,.819.948,5.17,5.17,0,0,0,1.286.681,13.122,13.122,0,0,0,1.732.5q.385.085.792.181c.264.062.523.133.774.213a5.413,5.413,0,0,1,.69.27,2.375,2.375,0,0,1,.524.338,1.283,1.283,0,0,1,.32.413,1.176,1.176,0,0,1,.111.528,1.766,1.766,0,0,1-.242.954,2.092,2.092,0,0,1-.667.664,3.184,3.184,0,0,1-.983.4,4.5,4.5,0,0,1-1.98.038,4.283,4.283,0,0,1-.821-.27,4.2,4.2,0,0,1-1.386-.995,1.024,1.024,0,0,0-.161-.175.724.724,0,0,0-.913.028c-.072.061-.163.146-.273.255A.546.546,0,0,0,0,11.31a.625.625,0,0,0,.083.317.992.992,0,0,0,.115.162,4.823,4.823,0,0,0,1.8,1.465,5.919,5.919,0,0,0,1.8.507v.718a.753.753,0,0,0,.153.5.614.614,0,0,0,.493.214h.438a.656.656,0,0,0,.482-.19.718.718,0,0,0,.186-.527v-.751a6.059,6.059,0,0,0,1.217-.3,4.249,4.249,0,0,0,1.309-.748,3.493,3.493,0,0,0,.891-1.165,3.6,3.6,0,0,0,.325-1.555,2.7,2.7,0,0,0-.216-1.1" transform="matrix(0.809, 0.588, -0.588, 0.809, 17.203, 5.526)" fill="#aadb1e"/>
        </g>
        <g id="Grupo_1398" data-name="Grupo 1398" transform="translate(28.485 7.588)">
          <rect id="Rectángulo_694" data-name="Rectángulo 694" width="25.294" height="1.686" rx="0.843" fill="#aadb1e"/>
          <rect id="Rectángulo_695" data-name="Rectángulo 695" width="25.294" height="1.686" rx="0.843" transform="translate(6.745 5.059)" fill="#aadb1e"/>
          <rect id="Rectángulo_696" data-name="Rectángulo 696" width="25.294" height="1.686" rx="0.843" transform="translate(0 10.118)" fill="#aadb1e"/>
        </g>
      </g>
    </g>
  </g>
</svg>
