<svg xmlns="http://www.w3.org/2000/svg" width="50" height="50" viewBox="0 0 50 50"><path d="M50.222,37.722a31.557,31.557,0,0,1-9.917-1.583,2.835,2.835,0,0,0-2.833.667l-6.111,6.111A41.793,41.793,0,0,1,13.056,24.611l6.111-6.139a2.667,2.667,0,0,0,.694-2.778,31.557,31.557,0,0,1-1.583-9.917A2.786,2.786,0,0,0,15.5,3H5.778A2.786,2.786,0,0,0,3,5.778,47.218,47.218,0,0,0,50.222,53,2.786,2.786,0,0,0,53,50.222V40.5A2.786,2.786,0,0,0,50.222,37.722ZM47.444,28H53A25,25,0,0,0,28,3V8.556A19.43,19.43,0,0,1,47.444,28ZM36.333,28h5.556A13.894,13.894,0,0,0,28,14.111v5.556A8.322,8.322,0,0,1,36.333,28Z" transform="translate(-3 -3)" fill="#fff"/></svg>