<svg xmlns="http://www.w3.org/2000/svg" width="77.967" height="110.264" viewBox="0 0 77.967 110.264">
  <g id="Grupo_1883" data-name="Grupo 1883" transform="translate(1061.859 -14024.226)">
    <path id="Trazado_1383" data-name="Trazado 1383" d="M142.847,704.164c-9.03-15.176-30.892-19.318-50.027-9.6l-1.692-3.094a.767.767,0,0,0-.455-.367.753.753,0,0,0-.58.066l-2.362,1.316a.775.775,0,0,0-.3,1.046l1.7,3.1A46.363,46.363,0,0,0,70.4,718.125c-3.621,8.847-3.633,17.963-.035,25.669a.757.757,0,0,0,.991.379.772.772,0,0,0,.408-.987c-1.388-3.576.707-8.035,4.873-10.374,4.487-2.52,9.751-1.636,11.736,1.968a.758.758,0,0,0,1.036.3.773.773,0,0,0,.3-1.046,6.809,6.809,0,0,1-.188-5.885,10.6,10.6,0,0,1,4.725-5.22c4.485-2.519,9.75-1.636,11.735,1.969a.759.759,0,0,0,1.036.3l.186-.1a.768.768,0,0,0,.363-.462.777.777,0,0,0-.067-.584,6.809,6.809,0,0,1-.188-5.885,10.6,10.6,0,0,1,4.725-5.22c4.486-2.519,9.75-1.636,11.735,1.969a.759.759,0,0,0,1.036.3.771.771,0,0,0,.391-.674.759.759,0,0,0-.1-.373,6.809,6.809,0,0,1-.187-5.885,10.6,10.6,0,0,1,4.725-5.22,10.439,10.439,0,0,1,6.884-1.3,6.681,6.681,0,0,1,4.851,3.266.757.757,0,0,0,1.036.3l.161-.09a.774.774,0,0,0,.283-1.069m-6.067-3.921a11.966,11.966,0,0,0-7.889,1.468,12.14,12.14,0,0,0-5.4,5.992,9.154,9.154,0,0,0-.672,3.922c-3-2.126-7.548-2.268-11.534-.03a12.132,12.132,0,0,0-5.4,5.992,9.068,9.068,0,0,0-.652,4.177c-2.991-2.269-7.662-2.47-11.74-.181a12.136,12.136,0,0,0-5.4,5.992,9.133,9.133,0,0,0-.671,3.921c-3-2.125-7.549-2.267-11.535-.029a11.883,11.883,0,0,0-5.779,7.143c-3.714-14.345,4.557-31.575,20.42-41.041a.779.779,0,0,0,.1-.095.847.847,0,0,0,.113-.1.71.71,0,0,0,.066-.132.687.687,0,0,0,.062-.132.774.774,0,0,0,.013-.145.736.736,0,0,0,.009-.148.831.831,0,0,0-.044-.142.8.8,0,0,0-.043-.139l-1.68-3.071,1.028-.573,1.676,3.064a.71.71,0,0,0,.093.111.392.392,0,0,0,.222.184.392.392,0,0,0,.271.084.706.706,0,0,0,.152.014.782.782,0,0,0,.144-.042.737.737,0,0,0,.137-.04c16.607-8.745,35.454-6.623,45.5,4.393a9.844,9.844,0,0,0-1.574-.415" transform="translate(-1129.531 13334.9)" fill="#00bfb2"/>
    <path id="Trazado_1384" data-name="Trazado 1384" d="M106.672,719.907a.758.758,0,0,0-1.035-.3.773.773,0,0,0-.3,1.045l.788,1.441-1.092.457-.673-1.232a.758.758,0,0,0-1.035-.3.773.773,0,0,0-.3,1.045l7.227,13.219c1.409-.53,2.745-1.042,3.97-1.559Z" transform="translate(-1129.531 13334.9)" fill="#00bfb2"/>
    <path id="Trazado_1385" data-name="Trazado 1385" d="M144.971,765.339c-.945-2-3.009-2.4-4.588-2.374a5.345,5.345,0,0,0,.659-5.6,4.886,4.886,0,0,0-4.719-2.707,5.425,5.425,0,0,0,.475-5.8,5.233,5.233,0,0,0-3.148-2.667,4.1,4.1,0,0,0-.48-.1,4.568,4.568,0,0,0,.628-1.226,5.431,5.431,0,0,0-.752-4.543,3.821,3.821,0,0,0-3.938-1.8,14.817,14.817,0,0,0,2.389-6.736,16.094,16.094,0,0,0-1.156-8.248,3.086,3.086,0,0,0-2.766-1.942,3,3,0,0,0-2.817,1.687,27.391,27.391,0,0,1-5.039,7.246,18.159,18.159,0,0,1-5.5,3.19c-1.224.517-2.561,1.03-3.97,1.56l-.969.363c-5.5,2.062-11.737,4.4-16.217,8.33-3.393,2.978-8.97,11.21-8.355,23.174.531,10.32.238,22.238-6.795,22.806a.762.762,0,0,0-.631.447.777.777,0,0,0,.077.774c.277.383,6.279,8.415,20.916,8.414a44.672,44.672,0,0,0,5.729-.385c18.4-2.4,28.677-10.354,34.053-16.606,4.105-4.773,5.116-8.653,5.358-10.045.129-.126.223-.224.276-.28a5.567,5.567,0,0,0,1.275-6.934m-8.059,16.25c-5.2,6.05-15.169,13.753-33.1,16.089-14.409,1.878-21.933-4.028-24.343-6.437,6.919-1.891,7.329-13.187,6.764-24.173-.585-11.372,4.648-19.138,7.833-21.932,4.27-3.748,10.368-6.033,15.747-8.049,4.688-1.757,8.738-3.274,10.964-5.451a28.924,28.924,0,0,0,5.342-7.663,1.471,1.471,0,0,1,1.4-.837,1.578,1.578,0,0,1,1.412.993,14.569,14.569,0,0,1,1.054,7.46c-.709,5.489-3.2,7.421-3.974,7.9-.11.058-.217.116-.315.174-.5.312-12.341,7.625-13.678,8.742-.093.078-.173.16-.259.241-1.611.82-4.161,3.2-2.868,6.7,1.18,3.2,2.328,8,1.094,12.7a30.038,30.038,0,0,1-2.975,7.359.773.773,0,0,0,.243,1.059.756.756,0,0,0,1.049-.245,30.913,30.913,0,0,0,3.156-7.778,22.576,22.576,0,0,0-.764-12.551c.057.1.116.2.178.3a5.782,5.782,0,0,0,4.221,2.647,7.765,7.765,0,0,0-.028,5.376,5.6,5.6,0,0,0,5.359,3.064,5.848,5.848,0,0,0,.486,4.053,5.994,5.994,0,0,0,4.386,3.166,4.379,4.379,0,0,0,1.621,3.963,4.292,4.292,0,0,0,2.777.858c2.51,0,5.635-1.387,8.16-2.8a32.293,32.293,0,0,0,3.516-2.252,23.535,23.535,0,0,1-4.46,7.322m5.82-10.509a.723.723,0,0,0-.115.106l-.021.022a.736.736,0,0,0-.589.568,26.808,26.808,0,0,1-4.888,3.4c-4.447,2.479-7.817,3.237-9.249,2.081a3.016,3.016,0,0,1-.951-3.175.775.775,0,0,0-.1-.68.76.76,0,0,0-.6-.331c-.028,0-2.85-.129-3.937-2.409a3.9,3.9,0,0,1-.066-3.786.775.775,0,0,0,.024-.855.759.759,0,0,0-.774-.349c-.039.007-3.783.624-5.016-2.1-.97-2.142.422-5.13.436-5.16a.777.777,0,0,0-.075-.791.759.759,0,0,0-.728-.3,4.249,4.249,0,0,1-3.949-1.992,4.561,4.561,0,0,1,.853-5.737c1.04-.868,10.065-6.491,13.469-8.594.047-.023.123-.064.224-.123.81-.421,3.841-1.813,5.053.243a3.975,3.975,0,0,1,.619,3.26,4.083,4.083,0,0,1-1.947,2.128,3.688,3.688,0,0,0-.339.169.773.773,0,0,0-.3,1.006.757.757,0,0,0,.972.37c.021-.008.145-.061.334-.161a3.456,3.456,0,0,1,2.183-.2,3.782,3.782,0,0,1,2.219,1.949c1.592,2.786-1.56,5.531-1.7,5.647a.775.775,0,0,0-.157.99.756.756,0,0,0,.943.307c.145-.061,3.564-1.469,5.127,1.511,1.339,2.552-1.637,5.278-1.668,5.305a.777.777,0,0,0-.165.937.758.758,0,0,0,.863.382c.038-.01,3.8-.969,4.871,1.29a4.012,4.012,0,0,1-.864,5.079" transform="translate(-1129.531 13334.9)" fill="#472b74"/>
  </g>
</svg>
