<svg xmlns="http://www.w3.org/2000/svg" width="110.493" height="96.491" viewBox="0 0 110.493 96.491">
  <g id="Grupo_1751" data-name="Grupo 1751" transform="translate(410.067 -7412.824)">
    <path id="Trazado_1234" data-name="Trazado 1234" d="M115.96,4.557l2.184-2.317L115.827.057,117.737,0l2.317,2.183L117.871,4.5Z" transform="translate(-471.984 7412.824)" fill="#aadb1e"/>
    <path id="Trazado_1235" data-name="Trazado 1235" d="M137.367,259.248l-2.184,2.317,2.318,2.183-1.91.057-2.317-2.183,2.183-2.317Z" transform="translate(-485.671 7209.449)" fill="#aadb1e"/>
    <rect id="Rect치ngulo_780" data-name="Rect치ngulo 780" width="57.913" height="60.429" transform="translate(-381.121 7412.824)" fill="none"/>
    <g id="Rect치ngulo_782" data-name="Rect치ngulo 782" transform="translate(-358 7457.951)" fill="#fff" stroke="#fff" stroke-width="1">
      <rect width="12" height="2" rx="1" stroke="none"/>
      <rect x="0.5" y="0.5" width="11" height="1" rx="0.5" fill="none"/>
    </g>
    <g id="Grupo_1744" data-name="Grupo 1744" transform="translate(-640 7096.951)">
      <path id="Trazado_329" data-name="Trazado 329" d="M340.426,409.48a.481.481,0,0,0-.017-.054.78.78,0,0,0-.047-.156.769.769,0,0,0-.063-.136.713.713,0,0,0-.1-.116.6.6,0,0,0-.246-.178.821.821,0,0,0-.148-.056c-.02,0-.036-.017-.057-.021-.076-.013-7.731-1.355-11.2-10.342-3.509-9.091-7.724-13.919-13.261-15.191a31.736,31.736,0,0,0-7.965-.743c-.528,0-1.065,0-1.612-.009-.691-.01-1.411-.038-2.174-.1a31.583,31.583,0,0,1-6.592-1.253,43.925,43.925,0,0,1-8.387-3.539c-.2-.1-.393-.2-.59-.3l-.013-.007c-.55-.282-1.093-.548-1.637-.81-.136-.064-.272-.138-.408-.2a22.185,22.185,0,0,0-4.534-1.6,20.548,20.548,0,0,0-3.958-.5c-.061,0-.115-.009-.176-.011-.723-.017-1.4-.015-2.068,0-.7.014-1.357.062-1.988.126l-.043,0a6.861,6.861,0,0,0-.83.1l-.18.027a6.658,6.658,0,0,0-.942.265c-1.7.6-2.86,1.8-2.36,2.888a7.69,7.69,0,0,0,2.078,1.986c1.255.943,2.77,1.947,3.783,2.6.669.432,1.125.715,1.125.715.372.255.79.586,1.225.945.968.8,2.053,1.79,3.127,2.778,1.364,1.256,2.76,2.537,4.137,3.653-1.781.252-4.9.667-8.563,1.044-2.719.281-5.741.54-8.757.7q-.846.043-1.688.077c-1.269.05-2.527.082-3.749.085-.255-.147-.8-.47-1.546-.936a55.907,55.907,0,0,1-11.448-9.449c-6.254-7.011-10.029-11.243-13.111-8.9-2,1.523.681,6.548,3.4,10.635-3.227-2.327-5.87-3.852-8.122-2.471a1.833,1.833,0,0,0-.786,1.544c-.073,1.734,1.387,5.8,11.969,13.575,13.006,9.55,26.809,14.272,46.152,15.79,3.97.312,8.412.436,12.983.436,18.2,0,38.41-1.976,38.663-2a.735.735,0,0,0,.079-.025.808.808,0,0,0,.177-.054.914.914,0,0,0,.106-.061.862.862,0,0,0,.131-.109.733.733,0,0,0,.079-.1.694.694,0,0,0,.08-.147.662.662,0,0,0,.044-.125.482.482,0,0,0,.02-.057.617.617,0,0,0,0-.1.593.593,0,0,0,.011-.1m-104-35.339c1.807-1.374,5.16,2.22,10.93,8.69a56.2,56.2,0,0,0,11.009,9.243,35.737,35.737,0,0,1-4.882-.507c-3.881-.733-7.434-2.894-10.5-5.064-4.7-6.207-7.38-11.733-6.552-12.362m51.762,36.178c-19.022-1.492-32.577-6.122-45.323-15.483-9.644-7.083-11.109-10.664-11.291-11.875a1.471,1.471,0,0,1,0-.57c1.7-1.031,4.6,1.118,7.964,3.607,3.7,2.739,8.3,6.148,13.642,7.155,5.849,1.1,15.285.514,22.573-.237,5.518-.568,9.807-1.228,10.365-1.316l.083.058c.71.482,1.4.894,2.057,1.258a18.765,18.765,0,0,0,6.936,2.4.807.807,0,0,0,.124-1.609,14.068,14.068,0,0,1-3.151-.789,21.757,21.757,0,0,1-3.529-1.637c-.5-.285-1.007-.6-1.53-.955a55.878,55.878,0,0,1-5.845-4.929c-.61-.562-1.188-1.088-1.752-1.591-.692-.619-1.35-1.186-1.958-1.66a14.042,14.042,0,0,0-1.212-.862c-.017-.015-3.917-2.57-5-3.292-1.041-.693-.906-1.3-.133-1.749a21.257,21.257,0,0,1,6-.471,20.059,20.059,0,0,1,9.115,2.491c.495.247.992.5,1.5.762l.136.07a45.238,45.238,0,0,0,8.538,3.584,32.628,32.628,0,0,0,7.315,1.346h0c1.256.081,2.395.08,3.517.077a29.965,29.965,0,0,1,7.6.7c4.968,1.142,8.818,5.655,12.118,14.2a18.213,18.213,0,0,0,8.842,10.084c-8.877.755-32.031,2.463-47.7,1.233" fill="#472b74"/>
      <g id="Grupo_1426" data-name="Grupo 1426">
        <path id="Trazado_1061" data-name="Trazado 1061" d="M39.584,49.658a6.691,6.691,0,1,1,6.691-6.691,6.7,6.7,0,0,1-6.691,6.691m0-12.861a6.169,6.169,0,1,0,6.169,6.169A6.176,6.176,0,0,0,39.584,36.8" transform="translate(248.485 302.825)" fill="#aadb1e"/>
        <path id="Trazado_1062" data-name="Trazado 1062" d="M95.72,77.029a3.593,3.593,0,0,0,.428.255,2.517,2.517,0,0,0,.442.175,1.5,1.5,0,0,0,.411.064,1.888,1.888,0,0,0,.5-.064,1.239,1.239,0,0,0,.406-.189.937.937,0,0,0,.272-.3.813.813,0,0,0,.1-.4.516.516,0,0,0-.135-.354,1.266,1.266,0,0,0-.35-.267,3.1,3.1,0,0,0-.482-.206q-.267-.09-.536-.17a.771.771,0,0,1-.1-.033c-.03-.013-.059-.024-.087-.033a6.567,6.567,0,0,1-.9-.38,2.75,2.75,0,0,1-.633-.442,1.565,1.565,0,0,1-.371-.534,1.711,1.711,0,0,1-.121-.657,1.828,1.828,0,0,1,.125-.683,1.69,1.69,0,0,1,.362-.558,2.092,2.092,0,0,1,.572-.411,2.783,2.783,0,0,1,.756-.243v-.676a.22.22,0,0,1,.052-.146.192.192,0,0,1,.155-.061h.687a.237.237,0,0,1,.151.057.184.184,0,0,1,.071.151v.657a3.655,3.655,0,0,1,.565.142,3.067,3.067,0,0,1,.546.246q.132.076.274.173a2.966,2.966,0,0,1,.257.2,1.35,1.35,0,0,1,.189.194.284.284,0,0,1,.073.161.279.279,0,0,1-.1.189l-.529.548a.212.212,0,0,1-.151.071.417.417,0,0,1-.217-.113q-.142-.113-.34-.253a2.694,2.694,0,0,0-.454-.253,1.366,1.366,0,0,0-.561-.113,1.672,1.672,0,0,0-.466.059,1.093,1.093,0,0,0-.342.161.678.678,0,0,0-.21.241.655.655,0,0,0-.071.3.5.5,0,0,0,.1.317.964.964,0,0,0,.286.236,2.576,2.576,0,0,0,.435.191q.253.087.551.177.458.142.884.307a3.285,3.285,0,0,1,.747.4,1.832,1.832,0,0,1,.515.569,1.61,1.61,0,0,1,.194.818,2.021,2.021,0,0,1-.166.825,2.086,2.086,0,0,1-.457.659,2.42,2.42,0,0,1-.689.466,3.12,3.12,0,0,1-.867.248v.652q0,.213-.221.213h-.687a.185.185,0,0,1-.207-.213v-.676a3.121,3.121,0,0,1-.721-.22A3.735,3.735,0,0,1,95,78.113a3.116,3.116,0,0,1-.258-.206,2.9,2.9,0,0,1-.222-.217,1.891,1.891,0,0,1-.156-.191.267.267,0,0,1-.059-.128.234.234,0,0,1,.095-.165l.6-.548a.276.276,0,0,1,.151-.066.163.163,0,0,1,.085.026.662.662,0,0,1,.095.073l.028.033a2.658,2.658,0,0,0,.369.3" transform="translate(191.083 270.639)" fill="#aadb1e"/>
        <path id="Trazado_1063" data-name="Trazado 1063" d="M1.724,35.468H0A29.172,29.172,0,0,1,27.627,6.32l.091,1.722A27.448,27.448,0,0,0,1.724,35.468" transform="translate(258.879 310.915)" fill="#aadb1e"/>
        <path id="Trazado_1065" data-name="Trazado 1065" d="M140.194,167.969l-.091-1.722A27.448,27.448,0,0,0,166.1,138.821h1.724a29.172,29.172,0,0,1-27.627,29.148" transform="translate(148.971 206.971)" fill="#aadb1e"/>
        <path id="ic_stay_current_portrait_24px" d="M26.993,1.018,8.658,1A3.662,3.662,0,0,0,5.01,4.667v33a3.662,3.662,0,0,0,3.648,3.667H26.993a3.678,3.678,0,0,0,3.667-3.667v-33A3.662,3.662,0,0,0,26.993,1.018Zm0,32.983H8.658V8.334H26.993Z" transform="translate(270.234 324.624)" fill="#aadb1e"/>
      </g>
    </g>
  </g>
</svg>
