<svg xmlns="http://www.w3.org/2000/svg" xmlns:xlink="http://www.w3.org/1999/xlink" width="83.517" height="108.129" viewBox="0 0 83.517 108.129">
  <defs>
    <clipPath id="clip-path">
      <rect id="Rectángulo_700" data-name="Rectángulo 700" width="30.719" height="51.337" fill="none"/>
    </clipPath>
    <clipPath id="clip-path-4">
      <rect id="Rectángulo_699" data-name="Rectángulo 699" width="44.256" height="69.794" fill="none"/>
    </clipPath>
  </defs>
  <g id="Grupo_1741" data-name="Grupo 1741" transform="translate(-253.288 -519.93)">
    <g id="Grupo_1416" data-name="Grupo 1416" transform="translate(241.706 547.554) rotate(-30)">
      <g id="Grupo_1412" data-name="Grupo 1412" transform="translate(24.53)">
        <g id="Grupo_1411" data-name="Grupo 1411" transform="translate(0)">
          <g id="Grupo_1410" data-name="Grupo 1410" clip-path="url(#clip-path)">
            <path id="Trazado_1075" data-name="Trazado 1075" d="M0,0V6.4A6.448,6.448,0,0,0,6.448,0Z" transform="translate(1.403 1.372)" fill="#00bfb2"/>
            <path id="Trazado_1076" data-name="Trazado 1076" d="M0,6.448H6.4A6.448,6.448,0,0,0,0,0Z" transform="translate(1.429 43.279)" fill="#00bfb2"/>
            <path id="Trazado_1077" data-name="Trazado 1077" d="M30.719,51.337H0V0H30.719ZM.747,50.589H29.972V.747H.747Z" fill="#00bfb2"/>
            <path id="Trazado_1078" data-name="Trazado 1078" d="M6.448,0V6.4A6.448,6.448,0,0,1,0,0Z" transform="translate(22.798 1.372)" fill="#00bfb2"/>
            <path id="Trazado_1079" data-name="Trazado 1079" d="M6.4,6.448H0A6.448,6.448,0,0,1,6.4,0Z" transform="translate(22.823 43.279)" fill="#00bfb2"/>
          </g>
        </g>
        <path id="Trazado_1074" data-name="Trazado 1074" d="M3.27,14.578a8.287,8.287,0,0,0,.986.588,5.8,5.8,0,0,0,1.019.4,3.45,3.45,0,0,0,.948.147,4.355,4.355,0,0,0,1.15-.147,2.858,2.858,0,0,0,.937-.436,2.16,2.16,0,0,0,.627-.7,1.875,1.875,0,0,0,.229-.932,1.19,1.19,0,0,0-.311-.817,2.92,2.92,0,0,0-.807-.616A7.153,7.153,0,0,0,6.937,11.6Q6.322,11.39,5.7,11.2a1.78,1.78,0,0,1-.223-.076c-.069-.029-.136-.054-.2-.076a15.148,15.148,0,0,1-2.082-.877A6.342,6.342,0,0,1,1.733,9.155,3.611,3.611,0,0,1,.878,7.924,3.946,3.946,0,0,1,.6,6.409,4.214,4.214,0,0,1,.888,4.834a3.9,3.9,0,0,1,.834-1.286A4.826,4.826,0,0,1,3.041,2.6a6.418,6.418,0,0,1,1.744-.561V.48A.507.507,0,0,1,4.9.142.442.442,0,0,1,5.262,0H6.847a.546.546,0,0,1,.347.131A.425.425,0,0,1,7.357.48V1.995a8.432,8.432,0,0,1,1.3.327,7.072,7.072,0,0,1,1.259.567q.3.175.632.4a6.84,6.84,0,0,1,.594.452,3.114,3.114,0,0,1,.436.447.656.656,0,0,1,.169.371.644.644,0,0,1-.229.436L10.3,6.256a.49.49,0,0,1-.349.163.963.963,0,0,1-.5-.262q-.327-.261-.785-.583a6.212,6.212,0,0,0-1.046-.583A3.151,3.151,0,0,0,6.325,4.73a3.855,3.855,0,0,0-1.076.136,2.521,2.521,0,0,0-.788.371,1.563,1.563,0,0,0-.484.556,1.51,1.51,0,0,0-.163.692,1.145,1.145,0,0,0,.24.73,2.223,2.223,0,0,0,.659.545,5.939,5.939,0,0,0,1,.442q.583.2,1.27.409,1.057.327,2.038.708a7.576,7.576,0,0,1,1.722.921,4.225,4.225,0,0,1,1.188,1.313,3.714,3.714,0,0,1,.447,1.886,4.66,4.66,0,0,1-.382,1.9,4.81,4.81,0,0,1-1.054,1.52,5.583,5.583,0,0,1-1.589,1.074,7.194,7.194,0,0,1-2,.572v1.5q0,.49-.51.49H5.262a.428.428,0,0,1-.478-.49V18.452a7.2,7.2,0,0,1-1.662-.507,8.617,8.617,0,0,1-1.52-.866,7.19,7.19,0,0,1-.594-.474A6.7,6.7,0,0,1,.5,16.1a4.359,4.359,0,0,1-.36-.441A.615.615,0,0,1,0,15.368a.539.539,0,0,1,.218-.381l1.373-1.264a.637.637,0,0,1,.349-.152.376.376,0,0,1,.2.06,1.525,1.525,0,0,1,.218.169l.065.076a6.132,6.132,0,0,0,.85.7" transform="translate(9.753 15.849)" fill="#00bfb2"/>
      </g>
      <g id="Grupo_1414" data-name="Grupo 1414" transform="translate(52.833 0.636) rotate(30)">
        <rect id="Rectángulo_701" data-name="Rectángulo 701" width="30.479" height="51.205" transform="translate(0)" fill="#fff"/>
        <g id="Grupo_1413" data-name="Grupo 1413" transform="translate(0 0)">
          <g id="Grupo_1411-2" data-name="Grupo 1411" transform="translate(0)">
            <g id="Grupo_1410-2" data-name="Grupo 1410" clip-path="url(#clip-path)">
              <path id="Trazado_1075-2" data-name="Trazado 1075" d="M0,0V6.4A6.448,6.448,0,0,0,6.448,0Z" transform="translate(1.403 1.372)" fill="#00bfb2"/>
              <path id="Trazado_1076-2" data-name="Trazado 1076" d="M0,6.448H6.4A6.448,6.448,0,0,0,0,0Z" transform="translate(1.429 43.279)" fill="#00bfb2"/>
              <path id="Trazado_1077-2" data-name="Trazado 1077" d="M30.719,51.337H0V0H30.719ZM.747,50.589H29.972V.747H.747Z" fill="#00bfb2"/>
              <path id="Trazado_1078-2" data-name="Trazado 1078" d="M6.448,0V6.4A6.448,6.448,0,0,1,0,0Z" transform="translate(22.798 1.372)" fill="#00bfb2"/>
              <path id="Trazado_1079-2" data-name="Trazado 1079" d="M6.4,6.448H0A6.448,6.448,0,0,1,6.4,0Z" transform="translate(22.823 43.279)" fill="#00bfb2"/>
            </g>
          </g>
          <path id="Trazado_1074-2" data-name="Trazado 1074" d="M3.27,14.578a8.287,8.287,0,0,0,.986.588,5.8,5.8,0,0,0,1.019.4,3.45,3.45,0,0,0,.948.147,4.355,4.355,0,0,0,1.15-.147,2.858,2.858,0,0,0,.937-.436,2.16,2.16,0,0,0,.627-.7,1.875,1.875,0,0,0,.229-.932,1.19,1.19,0,0,0-.311-.817,2.92,2.92,0,0,0-.807-.616A7.153,7.153,0,0,0,6.937,11.6Q6.322,11.39,5.7,11.2a1.78,1.78,0,0,1-.223-.076c-.069-.029-.136-.054-.2-.076a15.148,15.148,0,0,1-2.082-.877A6.342,6.342,0,0,1,1.733,9.155,3.611,3.611,0,0,1,.878,7.924,3.946,3.946,0,0,1,.6,6.409,4.214,4.214,0,0,1,.888,4.834a3.9,3.9,0,0,1,.834-1.286A4.826,4.826,0,0,1,3.041,2.6a6.418,6.418,0,0,1,1.744-.561V.48A.507.507,0,0,1,4.9.142.442.442,0,0,1,5.262,0H6.847a.546.546,0,0,1,.347.131A.425.425,0,0,1,7.357.48V1.995a8.432,8.432,0,0,1,1.3.327,7.072,7.072,0,0,1,1.259.567q.3.175.632.4a6.84,6.84,0,0,1,.594.452,3.114,3.114,0,0,1,.436.447.656.656,0,0,1,.169.371.644.644,0,0,1-.229.436L10.3,6.256a.49.49,0,0,1-.349.163.963.963,0,0,1-.5-.262q-.327-.261-.785-.583a6.212,6.212,0,0,0-1.046-.583A3.151,3.151,0,0,0,6.325,4.73a3.855,3.855,0,0,0-1.076.136,2.521,2.521,0,0,0-.788.371,1.563,1.563,0,0,0-.484.556,1.51,1.51,0,0,0-.163.692,1.145,1.145,0,0,0,.24.73,2.223,2.223,0,0,0,.659.545,5.939,5.939,0,0,0,1,.442q.583.2,1.27.409,1.057.327,2.038.708a7.576,7.576,0,0,1,1.722.921,4.225,4.225,0,0,1,1.188,1.313,3.714,3.714,0,0,1,.447,1.886,4.66,4.66,0,0,1-.382,1.9,4.81,4.81,0,0,1-1.054,1.52,5.583,5.583,0,0,1-1.589,1.074,7.194,7.194,0,0,1-2,.572v1.5q0,.49-.51.49H5.262a.428.428,0,0,1-.478-.49V18.452a7.2,7.2,0,0,1-1.662-.507,8.617,8.617,0,0,1-1.52-.866,7.19,7.19,0,0,1-.594-.474A6.7,6.7,0,0,1,.5,16.1a4.359,4.359,0,0,1-.36-.441A.615.615,0,0,1,0,15.368a.539.539,0,0,1,.218-.381l1.373-1.264a.637.637,0,0,1,.349-.152.376.376,0,0,1,.2.06,1.525,1.525,0,0,1,.218.169l.065.076a6.132,6.132,0,0,0,.85.7" transform="translate(9.753 15.849)" fill="#00bfb2"/>
        </g>
      </g>
      <g id="Grupo_1415" data-name="Grupo 1415" transform="translate(68.365 12.441) rotate(45)">
        <rect id="Rectángulo_701-2" data-name="Rectángulo 701" width="30.479" height="51.205" transform="translate(0)" fill="#fff"/>
        <g id="Grupo_1413-2" data-name="Grupo 1413" transform="translate(0 0)">
          <g id="Grupo_1411-3" data-name="Grupo 1411" transform="translate(0)">
            <g id="Grupo_1410-3" data-name="Grupo 1410" clip-path="url(#clip-path)">
              <path id="Trazado_1075-3" data-name="Trazado 1075" d="M0,0V6.4A6.448,6.448,0,0,0,6.448,0Z" transform="translate(1.403 1.372)" fill="#00bfb2"/>
              <path id="Trazado_1076-3" data-name="Trazado 1076" d="M0,6.448H6.4A6.448,6.448,0,0,0,0,0Z" transform="translate(1.429 43.279)" fill="#00bfb2"/>
              <path id="Trazado_1077-3" data-name="Trazado 1077" d="M30.719,51.337H0V0H30.719ZM.747,50.589H29.972V.747H.747Z" fill="#00bfb2"/>
              <path id="Trazado_1078-3" data-name="Trazado 1078" d="M6.448,0V6.4A6.448,6.448,0,0,1,0,0Z" transform="translate(22.798 1.372)" fill="#00bfb2"/>
              <path id="Trazado_1079-3" data-name="Trazado 1079" d="M6.4,6.448H0A6.448,6.448,0,0,1,6.4,0Z" transform="translate(22.823 43.279)" fill="#00bfb2"/>
            </g>
          </g>
          <path id="Trazado_1074-3" data-name="Trazado 1074" d="M3.27,14.578a8.287,8.287,0,0,0,.986.588,5.8,5.8,0,0,0,1.019.4,3.45,3.45,0,0,0,.948.147,4.355,4.355,0,0,0,1.15-.147,2.858,2.858,0,0,0,.937-.436,2.16,2.16,0,0,0,.627-.7,1.875,1.875,0,0,0,.229-.932,1.19,1.19,0,0,0-.311-.817,2.92,2.92,0,0,0-.807-.616A7.153,7.153,0,0,0,6.937,11.6Q6.322,11.39,5.7,11.2a1.78,1.78,0,0,1-.223-.076c-.069-.029-.136-.054-.2-.076a15.148,15.148,0,0,1-2.082-.877A6.342,6.342,0,0,1,1.733,9.155,3.611,3.611,0,0,1,.878,7.924,3.946,3.946,0,0,1,.6,6.409,4.214,4.214,0,0,1,.888,4.834a3.9,3.9,0,0,1,.834-1.286A4.826,4.826,0,0,1,3.041,2.6a6.418,6.418,0,0,1,1.744-.561V.48A.507.507,0,0,1,4.9.142.442.442,0,0,1,5.262,0H6.847a.546.546,0,0,1,.347.131A.425.425,0,0,1,7.357.48V1.995a8.432,8.432,0,0,1,1.3.327,7.072,7.072,0,0,1,1.259.567q.3.175.632.4a6.84,6.84,0,0,1,.594.452,3.114,3.114,0,0,1,.436.447.656.656,0,0,1,.169.371.644.644,0,0,1-.229.436L10.3,6.256a.49.49,0,0,1-.349.163.963.963,0,0,1-.5-.262q-.327-.261-.785-.583a6.212,6.212,0,0,0-1.046-.583A3.151,3.151,0,0,0,6.325,4.73a3.855,3.855,0,0,0-1.076.136,2.521,2.521,0,0,0-.788.371,1.563,1.563,0,0,0-.484.556,1.51,1.51,0,0,0-.163.692,1.145,1.145,0,0,0,.24.73,2.223,2.223,0,0,0,.659.545,5.939,5.939,0,0,0,1,.442q.583.2,1.27.409,1.057.327,2.038.708a7.576,7.576,0,0,1,1.722.921,4.225,4.225,0,0,1,1.188,1.313,3.714,3.714,0,0,1,.447,1.886,4.66,4.66,0,0,1-.382,1.9,4.81,4.81,0,0,1-1.054,1.52,5.583,5.583,0,0,1-1.589,1.074,7.194,7.194,0,0,1-2,.572v1.5q0,.49-.51.49H5.262a.428.428,0,0,1-.478-.49V18.452a7.2,7.2,0,0,1-1.662-.507,8.617,8.617,0,0,1-1.52-.866,7.19,7.19,0,0,1-.594-.474A6.7,6.7,0,0,1,.5,16.1a4.359,4.359,0,0,1-.36-.441A.615.615,0,0,1,0,15.368a.539.539,0,0,1,.218-.381l1.373-1.264a.637.637,0,0,1,.349-.152.376.376,0,0,1,.2.06,1.525,1.525,0,0,1,.218.169l.065.076a6.132,6.132,0,0,0,.85.7" transform="translate(9.753 15.849)" fill="#00bfb2"/>
        </g>
      </g>
      <g id="Grupo_1409" data-name="Grupo 1409" transform="translate(0 23.164)">
        <g id="Grupo_1408" data-name="Grupo 1408" transform="translate(0 0)" clip-path="url(#clip-path-4)">
          <path id="Trazado_1073" data-name="Trazado 1073" d="M4.127,51.291c-7.349-12.96-3.014-19.91-1.176-23.33,3.245-6.04,8.14-16.777,11.559-19.785S25.25,0,25.25,0V9.876s-1.189,2.183-2.817,5.332-3.581,6.512-2.5,8.249S25.5,32.926,25.5,32.926s4.64-4.4,7.815-7.408,9.09-5.644,10.5-1.953-.869,5.21-2.606,7.489-9.117,9.117-10.094,12.264-.217,13.134-5.1,18.561c-7.189,7.986-10.094,7.914-10.094,7.914S7.995,58.112,4.127,51.291" transform="translate(0 0.001)" fill="#fff" stroke="#a9db1e" stroke-width="1"/>
        </g>
      </g>
    </g>
  </g>
</svg>
