<svg xmlns="http://www.w3.org/2000/svg" width="95.794" height="84.167" viewBox="0 0 95.794 84.167">
  <g id="Grupo_1882" data-name="Grupo 1882" transform="translate(1070.773 -13851.12)">
    <path id="Trazado_1375" data-name="Trazado 1375" d="M113.411,582.236a4.061,4.061,0,0,0-.861-1.251,5.352,5.352,0,0,0-1.216-.893,10.042,10.042,0,0,0-1.389-.619c-.476-.17-.969-.321-1.465-.448s-.949-.239-1.4-.349q-.835-.192-1.65-.43a6.754,6.754,0,0,1-1.369-.556,2.812,2.812,0,0,1-.881-.733,1.487,1.487,0,0,1-.282-.942,2.32,2.32,0,0,1,.908-1.862,3.68,3.68,0,0,1,1.212-.608,6.147,6.147,0,0,1,1.795-.234,5.89,5.89,0,0,1,1.295.131,5.362,5.362,0,0,1,1.056.347,5.589,5.589,0,0,1,.882.5c.28.2.548.4.8.622a1.257,1.257,0,0,0,.785.361.785.785,0,0,0,.51-.193c.05-.041.113-.095.2-.175q.245-.232.367-.361a.889.889,0,0,0,.276-.615.857.857,0,0,0-.218-.562c-.056-.064-.14-.153-.255-.267a7.481,7.481,0,0,0-2.257-1.544,8.366,8.366,0,0,0-2.09-.6v-.844a1.058,1.058,0,0,0-.274-.752.968.968,0,0,0-.72-.3h-.652a.9.9,0,0,0-.766.385,1.155,1.155,0,0,0-.194.67v.82a7.954,7.954,0,0,0-1.783.421,5.868,5.868,0,0,0-1.823,1.059,4.623,4.623,0,0,0-1.191,1.6,4.916,4.916,0,0,0-.416,2.037,4.011,4.011,0,0,0,.41,1.833,4.11,4.11,0,0,0,1.218,1.411,7.675,7.675,0,0,0,1.914,1.014,19.522,19.522,0,0,0,2.577.751q.573.126,1.179.269c.393.092.778.2,1.152.317a8.044,8.044,0,0,1,1.026.4,3.533,3.533,0,0,1,.78.5,1.909,1.909,0,0,1,.476.614,1.763,1.763,0,0,1,.165.785,2.627,2.627,0,0,1-.36,1.419,3.113,3.113,0,0,1-.993.988,4.729,4.729,0,0,1-1.462.588,6.7,6.7,0,0,1-2.946.056,6.37,6.37,0,0,1-1.221-.4,6.253,6.253,0,0,1-2.063-1.48,1.521,1.521,0,0,0-.24-.26,1.077,1.077,0,0,0-1.359.041c-.107.09-.243.217-.406.38a.813.813,0,0,0-.285.606.931.931,0,0,0,.123.472,1.479,1.479,0,0,0,.171.241,7.177,7.177,0,0,0,2.673,2.18,8.809,8.809,0,0,0,2.684.754V590.6a1.121,1.121,0,0,0,.227.749.913.913,0,0,0,.733.318h.652a.976.976,0,0,0,.717-.283,1.068,1.068,0,0,0,.277-.784v-1.118a9.014,9.014,0,0,0,1.811-.444,6.321,6.321,0,0,0,1.948-1.113,5.2,5.2,0,0,0,1.326-1.733,5.353,5.353,0,0,0,.484-2.314,4.021,4.021,0,0,0-.321-1.643" transform="translate(-1129.531 13334.9)" fill="#aadb1e"/>
    <path id="Trazado_1376" data-name="Trazado 1376" d="M96.213,528.367a.825.825,0,0,1,.2.1c-.013-.053-.03-.11-.042-.163Z" transform="translate(-1129.531 13334.9)" fill="#1d1d1b"/>
    <path id="Trazado_1377" data-name="Trazado 1377" d="M153.659,546.692c-1.09-1.473-2.068-2.135-3.089-2.087a2.948,2.948,0,0,0-2.3,1.722,18.119,18.119,0,0,1-5.973,6.112,4.008,4.008,0,0,0-.8-.913,4.855,4.855,0,0,0-4.319-1.221c.76-2.52,1.348-6.6-1.622-9.13-1.559-1.325-4.014-1.183-5.687-.873a10.932,10.932,0,0,0,.47-1.212,11.706,11.706,0,0,0-.024-8.453c-1.055-2.562-4.582-3.207-6.343-3.369-.111.529-.238,1.065-.382,1.6,1.624.114,4.506.665,5.216,2.39,1.068,2.592.762,4.812-.024,7.348a14.736,14.736,0,0,1-1.173,2.561l-.01.018c-1.01,1.819-2.217,3.518-2.235,3.544a.816.816,0,0,0,1.328.947c.073-.1,1.189-1.672,2.2-3.467,1.326-.4,4.229-.96,5.6.208,3.472,2.951.4,9.317.369,9.381a.815.815,0,0,0,1.352.889c.069-.081,1.719-1.957,4.245.1a2.677,2.677,0,0,1,.942,1.974c.238,2.946-2.357,7.559-5.044,10.592-2.244,2.533-6.624,6.527-10.758,4.825-3.128-1.288-1.774-5.391-1.715-5.564a.816.816,0,0,0-1.236-.936c-.06.042-6.081,4.162-9.923,2.178A2.955,2.955,0,0,1,111.4,563.2c.409.063.826.112,1.252.138,6.5.41,10.191-2.471,12.147-4.958a4.183,4.183,0,0,0-2.539-6.655,24.275,24.275,0,0,1-8.508-3.456c-.533-.336-1.061-.663-1.585-.986-.334-.206-.665-.41-.993-.615l-1.415-.9a30.694,30.694,0,0,1-4.746-3.683c-4.429-4.291-7.039-8.154-8.216-12.158-.04-.138-.066-.267-.1-.4-.1-.358-.194-.713-.274-1.06a.791.791,0,0,0-.2-.1l-1.353.556-.013-.006,0-.02a43.794,43.794,0,0,0-8.046,6.736c-.428.466-.9.988-1.41,1.551-3.993,4.409-10.675,11.789-15.172,12.8-4.811,1.087-10-4.185-10.055-4.238a.816.816,0,0,0-1.376.769,121.706,121.706,0,0,0,6.058,17.308c4.973,11.07,12.63,14.54,14.723,15.308q.066-.855.181-1.69c-2.288-.954-9.01-4.477-13.416-14.287a117.441,117.441,0,0,1-5.248-14.468c2.2,1.651,5.833,3.716,9.492,2.889,5-1.129,11.633-8.454,16.022-13.3.507-.558.976-1.077,1.4-1.54a42.4,42.4,0,0,1,7.292-6.177c1.281,4.221,4.01,8.26,8.586,12.694a40.88,40.88,0,0,0,7.432,5.412c.52.321,1.044.645,1.573.978a25.894,25.894,0,0,0,9.083,3.681,2.517,2.517,0,0,1,1.9,1.612,2.478,2.478,0,0,1-.353,2.43c-2.494,3.171-6.119,4.63-10.762,4.338a12.165,12.165,0,0,1-1.621-.224c-.232-.062-.383-.048-.7-.148-5.26-1.363-8.879-5.913-10.737-8.25-.387-.487-.693-.872-.942-1.139a1.378,1.378,0,0,0-1.2-.482c-1.02.115-1.7,1.291-2.83,3.239-1.206,2.081-2.858,4.931-5.23,6.619-7.42,5.28-12.042,1.7-12.237,1.54a.816.816,0,0,0-1.033,1.263,9.088,9.088,0,0,0,5.531,1.707,11.306,11.306,0,0,0,1.769-.144,13.152,13.152,0,0,0,2.073-.507,18.3,18.3,0,0,0,4.842-2.53c2.661-1.893,4.415-4.92,5.7-7.13a15.12,15.12,0,0,1,1.525-2.347c.2.226.46.554.755.926,1.949,2.452,5.716,7.174,11.344,8.739-.03,1.225.216,3.437,2.218,4.471,3.344,1.729,7.654-.058,9.968-1.3-.18,2.047.35,4.581,3.034,5.686a7,7,0,0,0,2.687.53A8.767,8.767,0,0,0,131,571.5a12.429,12.429,0,0,0,1.471-.733,18.834,18.834,0,0,0,3.781-2.932c1.442-.2,8.147-1.4,12.879-6.45,5.315-5.675,6.488-12.048,4.525-14.7m-5.716,13.582a20.719,20.719,0,0,1-9.79,5.5c2.633-3.2,5.15-7.818,4.881-11.139a5.361,5.361,0,0,0-.112-.667,19.348,19.348,0,0,0,6.744-6.8c.357-.591.705-.923.982-.936.187-.015.726.113,1.7,1.429,1.337,1.8.538,7.334-4.405,12.611" transform="translate(-1129.531 13334.9)" fill="#472b74"/>
    <path id="Trazado_1378" data-name="Trazado 1378" d="M132.474,570.771a12.751,12.751,0,0,1-1.471.734c.746,2.089,2.63,7.985,2.125,13.032-.944,9.437-8.948,14.486-22.535,14.208-1.226-.025-2.414-.039-3.565-.052-11.062-.133-18.371-.22-23.741-9.17-5.861-9.768,2.159-23.976,2.241-24.119a.766.766,0,0,0,.074-.224,13,13,0,0,1-2.072.507,39.344,39.344,0,0,0-3.785,11.759q-.116.834-.181,1.69a18.738,18.738,0,0,0,2.324,11.226c5.839,9.732,13.927,9.828,25.12,9.962,1.147.013,2.331.027,3.552.052.379.008.752.011,1.119.011,18.676,0,22.481-9.778,23.073-15.687.559-5.6-1.536-11.91-2.278-13.929" transform="translate(-1129.531 13334.9)" fill="#aadb1e"/>
    <path id="Trazado_1379" data-name="Trazado 1379" d="M124.707,518.018a.816.816,0,0,0-1.494-.4,9.885,9.885,0,0,1-9.174,4.109c-2.274-.3-4.213-3.719-4.769-5.01a.823.823,0,0,0-.753-.493.813.813,0,0,0-.748.5c-.022.053-2.261,5.3-6.5,5.608-3.958.29-6.445-3.939-6.469-3.982a.816.816,0,0,0-1.516.514c0,.026.354,2.649,1.2,8.259.087.571.209,1.168.352,1.778l0,.019.013.006,1.353-.556.162-.067c-.109-.488-.2-.966-.271-1.425-.341-2.252-.6-4.021-.792-5.332a7.965,7.965,0,0,0,6.08,2.413c3.663-.27,6.012-3.283,7.125-5.148.967,1.665,2.823,4.2,5.307,4.533a11.091,11.091,0,0,0,9.274-3.125c-.063,3-.522,8.589-2.863,12.735-2.963,5.246-8.961,11.317-10.479,12.816l1.415.9c1.908-1.9,7.535-7.689,10.484-12.911a21.106,21.106,0,0,0,1.935-4.885c.144-.535.271-1.07.382-1.6a38.783,38.783,0,0,0,.736-9.25" transform="translate(-1129.531 13334.9)" fill="#aadb1e"/>
  </g>
</svg>
