<svg xmlns="http://www.w3.org/2000/svg" width="232.713" height="141.718" viewBox="0 0 232.713 141.718">
  <g id="Grupo_11" data-name="Grupo 11" transform="translate(-678 -143.804)">
    <path id="Trazado_2" data-name="Trazado 2" d="M209.136,30.754c1.875-12.195-21.048-1.784-38.3,0a222.69,222.69,0,0,1-29.316,1.189l55.437,13.169c3.794-2.256,11.115-7.441,12.18-14.358" transform="translate(678 127)" fill="#00bfb2"/>
    <path id="Trazado_3" data-name="Trazado 3" d="M232.033,47.352a7.582,7.582,0,0,0-9.705-5.62c-4.594,1.5-12.382,3-25.372,3.381l-55.437-13.17C124.777,25.061,107.365,17.9,87.586,17.024c-21.679-.96-42.491.435-62.438,20.379A312.883,312.883,0,0,0,0,66.021s29.051,12.141,42.491,37.723c7.333,13.954,8.386,32.065,6.4,44.388A8.906,8.906,0,0,0,59.982,158.2c7.7-2.109,14.978-10.084,18.932-21.5,7.806-22.547-1.3-55.5-1.3-55.5H194.5a46.76,46.76,0,0,0,24.575-6.712c8.3-5.121,16.006-13.645,12.96-27.132" transform="translate(678 127)" fill="#aadb1e"/>
  </g>
</svg>
