<svg xmlns="http://www.w3.org/2000/svg" xmlns:xlink="http://www.w3.org/1999/xlink" width="248.613" height="74.614" viewBox="0 0 248.613 74.614">
  <defs>
    <clipPath id="clip-path">
      <rect id="Rectángulo_700" data-name="Rectángulo 700" width="32.762" height="60.063" fill="#aadb1e"/>
    </clipPath>
    <clipPath id="clip-path-2">
      <rect id="Rectángulo_700-2" data-name="Rectángulo 700" width="32.762" height="60.063" fill="none"/>
    </clipPath>
  </defs>
  <g id="Grupo_1743" data-name="Grupo 1743" transform="translate(-71.95 -688.444)">
    <g id="Grupo_1418" data-name="Grupo 1418" transform="translate(196.846 704.076) rotate(90)">
      <rect id="Rectángulo_701" data-name="Rectángulo 701" width="32.506" height="59.923" transform="translate(0)" fill="#fff"/>
      <g id="Grupo_1413" data-name="Grupo 1413" transform="translate(0 0)">
        <g id="Grupo_1411" data-name="Grupo 1411">
          <g id="Enmascarar_grupo_1410" data-name="Enmascarar grupo 1410" clip-path="url(#clip-path)">
            <path id="Trazado_1075" data-name="Trazado 1075" d="M0,0V7.484C3.78,7.484,6.847,4.139,6.877,0Z" transform="translate(1.497 1.605)" fill="#aadb1e"/>
            <path id="Trazado_1076" data-name="Trazado 1076" d="M0,7.544H6.822C6.822,3.4,3.773.032,0,0Z" transform="translate(1.524 50.636)" fill="#aadb1e"/>
            <path id="Trazado_1077" data-name="Trazado 1077" d="M32.762,60.063H0V0H32.762ZM.8,59.189H31.965V.874H.8Z" fill="#aadb1e"/>
            <path id="Trazado_1078" data-name="Trazado 1078" d="M6.877,0V7.484C3.1,7.484.029,4.139,0,0Z" transform="translate(24.314 1.605)" fill="#aadb1e"/>
            <path id="Trazado_1079" data-name="Trazado 1079" d="M6.822,7.544H0C0,3.4,3.05.032,6.822,0Z" transform="translate(24.341 50.636)" fill="#aadb1e"/>
          </g>
        </g>
        <path id="Trazado_1074" data-name="Trazado 1074" d="M3.487,15.547a8.838,8.838,0,0,0,1.052.628,6.19,6.19,0,0,0,1.087.43,3.679,3.679,0,0,0,1.011.157,4.644,4.644,0,0,0,1.226-.157,3.049,3.049,0,0,0,1-.465,2.3,2.3,0,0,0,.668-.744,2,2,0,0,0,.244-.994,1.269,1.269,0,0,0-.331-.872,3.114,3.114,0,0,0-.86-.657A7.629,7.629,0,0,0,7.4,12.368q-.657-.221-1.319-.418a1.9,1.9,0,0,1-.238-.081c-.074-.031-.145-.058-.215-.081a16.156,16.156,0,0,1-2.22-.936A6.764,6.764,0,0,1,1.848,9.764,3.851,3.851,0,0,1,.936,8.451a4.208,4.208,0,0,1-.3-1.616,4.5,4.5,0,0,1,.308-1.68,4.157,4.157,0,0,1,.889-1.372A5.147,5.147,0,0,1,3.243,2.772a6.845,6.845,0,0,1,1.86-.6V.512A.54.54,0,0,1,5.23.151.472.472,0,0,1,5.612,0H7.3a.582.582,0,0,1,.37.139.453.453,0,0,1,.174.372V2.127a8.992,8.992,0,0,1,1.389.349,7.543,7.543,0,0,1,1.343.6q.325.186.674.424a7.3,7.3,0,0,1,.633.482,3.32,3.32,0,0,1,.465.476.7.7,0,0,1,.18.4.687.687,0,0,1-.244.465l-1.3,1.348a.522.522,0,0,1-.372.174,1.027,1.027,0,0,1-.535-.279q-.349-.279-.837-.622a6.626,6.626,0,0,0-1.116-.622,3.36,3.36,0,0,0-1.38-.279A4.112,4.112,0,0,0,5.6,5.19a2.688,2.688,0,0,0-.84.4,1.667,1.667,0,0,0-.516.593,1.61,1.61,0,0,0-.174.738,1.222,1.222,0,0,0,.256.779,2.371,2.371,0,0,0,.7.581A6.334,6.334,0,0,0,6.1,8.747q.622.215,1.354.436,1.127.349,2.174.756a8.08,8.08,0,0,1,1.837.982,4.506,4.506,0,0,1,1.267,1.4,3.961,3.961,0,0,1,.477,2.011,4.97,4.97,0,0,1-.408,2.028,5.13,5.13,0,0,1-1.124,1.622,5.954,5.954,0,0,1-1.7,1.145,7.673,7.673,0,0,1-2.132.61v1.6q0,.523-.544.523H5.612a.456.456,0,0,1-.509-.523V19.68a7.676,7.676,0,0,1-1.773-.541,9.19,9.19,0,0,1-1.621-.924,7.668,7.668,0,0,1-.633-.506,7.141,7.141,0,0,1-.547-.535A4.649,4.649,0,0,1,.145,16.7.656.656,0,0,1,0,16.39a.575.575,0,0,1,.233-.407L1.7,14.635a.679.679,0,0,1,.372-.163.4.4,0,0,1,.209.064,1.626,1.626,0,0,1,.233.18l.07.081a6.54,6.54,0,0,0,.907.75" transform="translate(6.072 37.153) rotate(-90)" fill="#aadb1e"/>
      </g>
    </g>
    <g id="Grupo_1419" data-name="Grupo 1419" transform="translate(264.981 716.897) rotate(90)">
      <rect id="Rectángulo_701-2" data-name="Rectángulo 701" width="32.506" height="59.923" transform="translate(0)" fill="#fff"/>
      <g id="Grupo_1413-2" data-name="Grupo 1413" transform="translate(0 0)">
        <g id="Grupo_1411-2" data-name="Grupo 1411">
          <g id="Grupo_1410" data-name="Grupo 1410" clip-path="url(#clip-path-2)">
            <path id="Trazado_1075-2" data-name="Trazado 1075" d="M0,0V7.484C3.78,7.484,6.847,4.139,6.877,0Z" transform="translate(1.497 1.605)" fill="#00bfb2"/>
            <path id="Trazado_1076-2" data-name="Trazado 1076" d="M0,7.544H6.822C6.822,3.4,3.773.032,0,0Z" transform="translate(1.524 50.636)" fill="#00bfb2"/>
            <path id="Trazado_1077-2" data-name="Trazado 1077" d="M32.762,60.063H0V0H32.762ZM.8,59.189H31.965V.874H.8Z" fill="#00bfb2"/>
            <path id="Trazado_1078-2" data-name="Trazado 1078" d="M6.877,0V7.484C3.1,7.484.029,4.139,0,0Z" transform="translate(24.314 1.605)" fill="#00bfb2"/>
            <path id="Trazado_1079-2" data-name="Trazado 1079" d="M6.822,7.544H0C0,3.4,3.05.032,6.822,0Z" transform="translate(24.341 50.636)" fill="#00bfb2"/>
          </g>
        </g>
        <path id="Trazado_1074-2" data-name="Trazado 1074" d="M3.487,15.547a8.838,8.838,0,0,0,1.052.628,6.19,6.19,0,0,0,1.087.43,3.679,3.679,0,0,0,1.011.157,4.644,4.644,0,0,0,1.226-.157,3.049,3.049,0,0,0,1-.465,2.3,2.3,0,0,0,.668-.744,2,2,0,0,0,.244-.994,1.269,1.269,0,0,0-.331-.872,3.114,3.114,0,0,0-.86-.657A7.629,7.629,0,0,0,7.4,12.368q-.657-.221-1.319-.418a1.9,1.9,0,0,1-.238-.081c-.074-.031-.145-.058-.215-.081a16.156,16.156,0,0,1-2.22-.936A6.764,6.764,0,0,1,1.848,9.764,3.851,3.851,0,0,1,.936,8.451a4.208,4.208,0,0,1-.3-1.616,4.5,4.5,0,0,1,.308-1.68,4.157,4.157,0,0,1,.889-1.372A5.147,5.147,0,0,1,3.243,2.772a6.845,6.845,0,0,1,1.86-.6V.512A.54.54,0,0,1,5.23.151.472.472,0,0,1,5.612,0H7.3a.582.582,0,0,1,.37.139.453.453,0,0,1,.174.372V2.127a8.992,8.992,0,0,1,1.389.349,7.543,7.543,0,0,1,1.343.6q.325.186.674.424a7.3,7.3,0,0,1,.633.482,3.32,3.32,0,0,1,.465.476.7.7,0,0,1,.18.4.687.687,0,0,1-.244.465l-1.3,1.348a.522.522,0,0,1-.372.174,1.027,1.027,0,0,1-.535-.279q-.349-.279-.837-.622a6.626,6.626,0,0,0-1.116-.622,3.36,3.36,0,0,0-1.38-.279A4.112,4.112,0,0,0,5.6,5.19a2.688,2.688,0,0,0-.84.4,1.667,1.667,0,0,0-.516.593,1.61,1.61,0,0,0-.174.738,1.222,1.222,0,0,0,.256.779,2.371,2.371,0,0,0,.7.581A6.334,6.334,0,0,0,6.1,8.747q.622.215,1.354.436,1.127.349,2.174.756a8.08,8.08,0,0,1,1.837.982,4.506,4.506,0,0,1,1.267,1.4,3.961,3.961,0,0,1,.477,2.011,4.97,4.97,0,0,1-.408,2.028,5.13,5.13,0,0,1-1.124,1.622,5.954,5.954,0,0,1-1.7,1.145,7.673,7.673,0,0,1-2.132.61v1.6q0,.523-.544.523H5.612a.456.456,0,0,1-.509-.523V19.68a7.676,7.676,0,0,1-1.773-.541,9.19,9.19,0,0,1-1.621-.924,7.668,7.668,0,0,1-.633-.506,7.141,7.141,0,0,1-.547-.535A4.649,4.649,0,0,1,.145,16.7.656.656,0,0,1,0,16.39a.575.575,0,0,1,.233-.407L1.7,14.635a.679.679,0,0,1,.372-.163.4.4,0,0,1,.209.064,1.626,1.626,0,0,1,.233.18l.07.081a6.54,6.54,0,0,0,.907.75" transform="translate(6.072 37.153) rotate(-90)" fill="#00bfb2"/>
      </g>
    </g>
    <path id="Trazado_334" data-name="Trazado 334" d="M159.767,898.958c-.48-1.029-1.8-1.086-3.791-1.171-.81-.035-1.773-.079-2.837-.193a7.047,7.047,0,0,0,.869-1.4,2.325,2.325,0,0,0-.091-2.578c-.761-.972-2.418-1.251-4.666-.789-2.746.566-9.342-.3-10.221-.423-7.067-3.188-12.809-5.462-15.127-4.867a11.321,11.321,0,0,0-3.213,1.76c-1.023-.241-3.956-.934-5.523-1.306-2.67-.635-4.051,2.193-5.966,6.108a25.312,25.312,0,0,1-5.467,6.947c-.476.139-.961.273-1.456.408-3.68,1.005-7.487,2.045-9.092,6.168a55.2,55.2,0,0,0-1.861,8.15c-1.507,8.118-3.571,19.236-8.5,21.519-6.83,3.165-8.711,2.91-8.738,2.91a.832.832,0,0,0-.848,1.355,43.5,43.5,0,0,0,27.785,12.914c1.67.119,3.234.174,4.708.174,9.785,0,15.51-2.427,20.638-4.6a60.076,60.076,0,0,1,6.381-2.425c5.634-1.679,12.541.391,16.156,1.775a2.9,2.9,0,0,0,3.91-3.069c-.437-3.449-1.481-7.557-3.9-9.879a6.4,6.4,0,0,0-2.648-1.571c-.121-.036-.241-.063-.362-.1a16.513,16.513,0,0,0-6.073-.355c-.738.08-1.474.193-2.206.329-1.313.243-2.617.555-3.907.863a45.64,45.64,0,0,1-6.579,1.237c-5.578.479-10.254-7.73-11.353-13.586s.653-9.851,6.475-14.7c1.107-.923,2.04-1.747,2.863-2.476,3.884-3.436,4.927-4.361,9.638-2.706,1.035.364,1.943.668,2.791.939a4.788,4.788,0,0,1,1.557-1.26c-1.121-.338-2.334-.736-3.8-1.25-5.633-1.979-7.29-.512-11.293,3.03-.815.721-1.738,1.537-2.826,2.443-6.288,5.238-8.264,9.8-7.046,16.288,1.2,6.376,6.2,15.533,13.132,14.939a46.841,46.841,0,0,0,6.825-1.277c4.052-.97,7.88-1.885,11.69-.764,3.7,1.087,4.948,6.771,5.366,10.062a1.231,1.231,0,0,1-1.663,1.3c-3.813-1.459-11.12-3.634-17.227-1.816a61.447,61.447,0,0,0-6.555,2.489c-6.008,2.548-12.219,5.184-24.578,4.3a42.891,42.891,0,0,1-25.423-11.136,37.661,37.661,0,0,0,7.806-2.871c5.706-2.644,7.773-13.779,9.433-22.727a55.024,55.024,0,0,1,1.776-7.849c1.3-3.341,4.545-4.227,7.979-5.165.56-.153,1.124-.312,1.686-.479l.036-.011a17.838,17.838,0,0,0,3.633-1.44,65.856,65.856,0,0,0,7.918-5.987c3.164-2.619,6.75-5.588,8.328-5.994,2.418-.622,12.329,3.966,18.252,6.706,1.24.574,2.393,1.107,3.4,1.561a21.525,21.525,0,0,0,4.938,1.527c.014.005.03,0,.044.008a34.47,34.47,0,0,0,4.953.5,12.013,12.013,0,0,1,2.352.211c.2.435.134,1.684-1.251,2.882h2.206a3.8,3.8,0,0,0,.555-3.586m-44.839-5.1a71.227,71.227,0,0,1-7.369,5.635,22.928,22.928,0,0,0,3.139-4.665c2.034-4.162,2.91-5.5,4.083-5.22l4.167.987c-1.262.981-2.626,2.109-4.02,3.263M152.5,895.48a4.112,4.112,0,0,1-1.443,1.8,19.855,19.855,0,0,1-4.406-1.377c-.873-.393-1.859-.848-2.912-1.335a24.943,24.943,0,0,0,5.844-.106c1.958-.4,2.831-.055,3.019.185.166.212-.016.654-.1.835" transform="translate(-1.082 -199)" fill="#472b74"/>
    <path id="Trazado_338" data-name="Trazado 338" d="M312.136,898.584a.9.9,0,0,0-.972.132c-.105.089-10.427,8.933-18.149,6.684-9.119-2.651-15.772-2.625-22.962.094s-10.656,2.562-17.209,1.981c-4.782-.424-6.819-.112-7.5,1.154-.612,1.126.218,2.408.9,3.274.177.227.4.493.675.781a13.024,13.024,0,0,0,2.113,1.792,16.793,16.793,0,0,0,10.653,2.632c7.02-.4,10.806.752,12.263,3.735a5.845,5.845,0,0,1,.307.772,6.963,6.963,0,0,1-.555,5.086,47.617,47.617,0,0,1-3.5,6.038c-3.271,5.118-11.219,14.551-18.642,19.5-1.131.754-2.112,1.417-2.964,2.008-.99.687-1.795,1.273-2.454,1.791-1.853,1.457-2.5,2.36-2.5,3.314a2.477,2.477,0,0,0,1.369,1.964,6.807,6.807,0,0,0,3.535.743,26.834,26.834,0,0,0,13.218-4.164l.016-.011a9.977,9.977,0,0,0,13.11-.588c.064-.052.12-.106.183-.159a11.74,11.74,0,0,0,4.783,1.129,7.536,7.536,0,0,0,3.7-.917,18,18,0,0,0,4.184-3.291,9.442,9.442,0,0,0,9.188-2.047c4.412-4.025,9.577-14.052,11.461-19.443,5.59-16,6.256-32.974,6.263-33.143a.894.894,0,0,0-.509-.84m-7.444,33.393c-1.863,5.33-6.94,15.025-10.978,18.711a7.559,7.559,0,0,1-6.634,1.853,28.058,28.058,0,0,0,3.657-5.843.9.9,0,1,0-1.64-.718,26.91,26.91,0,0,1-4.047,6.177c-.247.3-.5.526-.508.548a18.848,18.848,0,0,1-1.927,1.77,14.168,14.168,0,0,1-1.935,1.307,5.329,5.329,0,0,1-.571.255,7.391,7.391,0,0,1-4.9,0c-.239-.074-.466-.151-.67-.228.544-.518,1.047-1.041,1.529-1.563a36.573,36.573,0,0,0,4.755-6.447,27.119,27.119,0,0,0,1.732-3.47.895.895,0,0,0-1.671-.64s-.026.064-.061.146a34.08,34.08,0,0,1-7.247,10.411c-.307.3-.62.6-.948.9-.318.275-.487.413-.629.551-.089.076-.171.154-.261.229-.051.043-.1.075-.151.116-4.522,3.659-8.436,1.988-10.253.782.344-.251.675-.518,1.008-.782.722-.573,1.423-1.169,2.094-1.791a56.228,56.228,0,0,0,10.484-13.84.9.9,0,1,0-1.592-.819c-.051.1-4.639,8.868-11.645,14.659-.63.52-1.272,1.026-1.94,1.49-.385.242-.675.465-.972.662-6.2,3.9-13.2,4.434-14.8,3.409-.5-.317-.544-.473-.544-.473-.02-.522,1.768-1.916,3.724-3.3.891-.629,1.813-1.251,2.619-1.791l.774-.517c7.638-5.093,15.8-14.775,19.187-20.072a41.547,41.547,0,0,0,3.9-6.956,8.312,8.312,0,0,0,.491-5.086,7.736,7.736,0,0,0-.57-1.559c-2.332-4.766-8.687-5.025-13.973-4.737a16.636,16.636,0,0,1-6.656-.843,12.393,12.393,0,0,1-3.336-1.792,10.59,10.59,0,0,1-1.938-1.884c-.76-.972-.729-1.313-.736-1.313.091-.118.779-.668,5.777-.228,6.643.592,10.462.763,18-2.09,6.791-2.568,13.116-2.583,21.827-.049,6.787,1.968,14.847-3.246,18.223-5.78a126.4,126.4,0,0,1-6.045,30.637" transform="translate(7.918 -199)" fill="#472b74"/>
    <g id="Grupo_1422" data-name="Grupo 1422" transform="translate(-1.082 -199)">
      <g id="Grupo_1420" data-name="Grupo 1420" transform="translate(201.694 903.077)">
        <path id="Trazado_1080" data-name="Trazado 1080" d="M0,8.477H0Z" transform="translate(0 -6.27)" fill="#aadb1e"/>
        <rect id="Rectángulo_702" data-name="Rectángulo 702" width="25.197" height="1.302" transform="translate(0 1.556)" fill="#aadb1e"/>
        <path id="Trazado_1081" data-name="Trazado 1081" d="M86.814,0l2.208,2.207L86.814,4.414h1.874L90.9,2.207,88.688,0Z" transform="translate(-64.21)" fill="#aadb1e"/>
      </g>
      <g id="Grupo_1421" data-name="Grupo 1421" transform="translate(215.037 910.077)">
        <path id="Trazado_1080-2" data-name="Trazado 1080" d="M0,8.477H0Z" transform="translate(0 -6.27)" fill="#aadb1e"/>
        <rect id="Rectángulo_702-2" data-name="Rectángulo 702" width="25.197" height="1.302" transform="translate(0 1.556)" fill="#aadb1e"/>
        <path id="Trazado_1081-2" data-name="Trazado 1081" d="M86.814,0l2.208,2.207L86.814,4.414h1.874L90.9,2.207,88.688,0Z" transform="translate(-64.21)" fill="#aadb1e"/>
      </g>
    </g>
    <g id="Grupo_1423" data-name="Grupo 1423" transform="translate(400.646 1654.149) rotate(180)">
      <g id="Grupo_1420-2" data-name="Grupo 1420" transform="translate(201.694 903.077)">
        <path id="Trazado_1080-3" data-name="Trazado 1080" d="M0,8.477H0Z" transform="translate(0 -6.27)" fill="#00bfb2"/>
        <rect id="Rectángulo_702-3" data-name="Rectángulo 702" width="25.197" height="1.302" transform="translate(0 1.556)" fill="#00bfb2"/>
        <path id="Trazado_1081-3" data-name="Trazado 1081" d="M86.814,0l2.208,2.207L86.814,4.414h1.874L90.9,2.207,88.688,0Z" transform="translate(-64.21)" fill="#00bfb2"/>
      </g>
      <g id="Grupo_1421-2" data-name="Grupo 1421" transform="translate(215.037 910.077)">
        <path id="Trazado_1080-4" data-name="Trazado 1080" d="M0,8.477H0Z" transform="translate(0 -6.27)" fill="#00bfb2"/>
        <rect id="Rectángulo_702-4" data-name="Rectángulo 702" width="25.197" height="1.302" transform="translate(0 1.556)" fill="#00bfb2"/>
        <path id="Trazado_1081-4" data-name="Trazado 1081" d="M86.814,0l2.208,2.207L86.814,4.414h1.874L90.9,2.207,88.688,0Z" transform="translate(-64.21)" fill="#00bfb2"/>
      </g>
    </g>
  </g>
</svg>
