<svg xmlns="http://www.w3.org/2000/svg" width="114.183" height="66.506" viewBox="0 0 114.183 66.506">
  <g id="Grupo_1717" data-name="Grupo 1717" transform="translate(-228.092 -455.095)">
    <path id="Trazado_142" data-name="Trazado 142" d="M2978.6,540.815c-.475-1.017-1.779-1.074-3.752-1.158-.8-.035-1.754-.079-2.807-.191a6.979,6.979,0,0,0,.86-1.384,2.305,2.305,0,0,0-.09-2.551c-.753-.961-2.394-1.238-4.618-.78-2.717.559-9.245-.3-10.115-.419-6.994-3.155-12.677-5.4-14.97-4.817a11.235,11.235,0,0,0-3.18,1.742c-1.012-.238-3.915-.924-5.465-1.293-2.643-.627-4.01,2.17-5.905,6.045a25.046,25.046,0,0,1-5.41,6.875c-.472.138-.951.271-1.441.4-3.642.995-7.409,2.024-9,6.1a54.716,54.716,0,0,0-1.842,8.065c-1.491,8.034-3.534,19.037-8.407,21.3-6.76,3.132-8.621,2.88-8.648,2.88a.824.824,0,0,0-.839,1.341,43.051,43.051,0,0,0,27.5,12.78c1.653.118,3.2.173,4.66.173,9.684,0,15.349-2.4,20.424-4.555a59.417,59.417,0,0,1,6.314-2.4c5.576-1.661,12.411.387,15.99,1.757a2.867,2.867,0,0,0,3.869-3.037c-.433-3.414-1.466-7.479-3.859-9.777a6.348,6.348,0,0,0-2.621-1.554c-.119-.036-.239-.063-.359-.095a16.345,16.345,0,0,0-6.01-.351c-.73.08-1.458.192-2.183.326-1.3.24-2.59.549-3.866.854a45.115,45.115,0,0,1-6.511,1.224c-5.52.474-10.148-7.649-11.236-13.445s.647-9.749,6.409-14.549c1.095-.913,2.018-1.729,2.833-2.45,3.843-3.4,4.876-4.315,9.538-2.678,1.024.36,1.923.661,2.762.929a4.751,4.751,0,0,1,1.541-1.247c-1.109-.334-2.31-.728-3.757-1.237-5.574-1.958-7.214-.507-11.176,3-.806.713-1.719,1.521-2.8,2.418-6.223,5.183-8.179,9.7-6.973,16.119,1.185,6.31,6.132,15.372,13,14.783a46.3,46.3,0,0,0,6.754-1.263c4.01-.96,7.8-1.865,11.569-.756,3.657,1.075,4.9,6.7,5.31,9.958a1.218,1.218,0,0,1-1.646,1.289c-3.773-1.444-11-3.6-17.048-1.8a60.89,60.89,0,0,0-6.487,2.463c-5.946,2.522-12.092,5.13-24.323,4.256a42.449,42.449,0,0,1-25.16-11.02,37.3,37.3,0,0,0,7.726-2.842c5.646-2.616,7.691-13.635,9.335-22.49a54.355,54.355,0,0,1,1.757-7.768c1.288-3.307,4.5-4.184,7.9-5.112.554-.151,1.112-.308,1.668-.473l.036-.012a17.616,17.616,0,0,0,3.6-1.425,65.119,65.119,0,0,0,7.836-5.925c3.131-2.592,6.68-5.53,8.241-5.931,2.393-.616,12.2,3.924,18.063,6.636,1.227.568,2.368,1.1,3.365,1.545a21.31,21.31,0,0,0,4.886,1.511c.015.005.03,0,.045.008a34.044,34.044,0,0,0,4.9.491,11.986,11.986,0,0,1,2.328.209c.2.431.132,1.667-1.238,2.853h2.183a3.765,3.765,0,0,0,.549-3.55m-44.374-5.041a70.262,70.262,0,0,1-7.293,5.576,22.63,22.63,0,0,0,3.106-4.616c2.013-4.119,2.88-5.442,4.041-5.167,1.083.258,2.825.67,4.124.977-1.249.971-2.6,2.087-3.978,3.23m37.186,1.6a4.079,4.079,0,0,1-1.427,1.779,19.564,19.564,0,0,1-4.362-1.363c-.863-.388-1.839-.839-2.881-1.321a24.655,24.655,0,0,0,5.783-.1c1.938-.4,2.8-.055,2.989.182.163.21-.017.648-.1.827" transform="translate(-2664.677 -74.327)" fill="#472b74"/>
    <g id="Grupo_1734" data-name="Grupo 1734">
      <path id="Trazado_141" data-name="Trazado 141" d="M3002.236,544.365H2960.3a4.675,4.675,0,0,0-2.128.514,4.717,4.717,0,0,0-2.588,4.2V573.2a4.735,4.735,0,0,0,1.118,3.042c.724-.134,1.453-.246,2.183-.326a3.081,3.081,0,0,1-1.652-2.716V549.081a3.071,3.071,0,0,1,3.067-3.068h41.939a3.072,3.072,0,0,1,3.068,3.068V573.2a3.071,3.071,0,0,1-3.068,3.068h-37.344c.119.031.239.058.359.094a6.344,6.344,0,0,1,2.62,1.554h34.365a4.721,4.721,0,0,0,4.716-4.716V549.081a4.721,4.721,0,0,0-4.716-4.716" transform="translate(-2664.677 -74.307)" fill="#00bfb2"/>
      <rect id="Rectángulo_138" data-name="Rectángulo 138" width="48.074" height="5.488" transform="translate(292.553 477.519)" fill="#00bfb2"/>
      <path id="Trazado_143" data-name="Trazado 143" d="M3000.186,572.442H2989.9a.721.721,0,0,1-.721-.721v-5.594a.721.721,0,0,1,.721-.721h10.285a.721.721,0,0,1,.721.721v5.594a.721.721,0,0,1-.721.721M2990.623,571h8.841v-4.15h-8.841Z" transform="translate(-2664.677 -74.387)" fill="#00bfb2"/>
    </g>
  </g>
</svg>
