<svg xmlns="http://www.w3.org/2000/svg" xmlns:xlink="http://www.w3.org/1999/xlink" width="53" height="53.326" viewBox="0 0 53 53.326"><defs><clipPath id="a"><path d="M6.35,46.531c.624-2.195,1.235-4.439,1.914-6.683a1.687,1.687,0,0,0-.273-1.6,21.782,21.782,0,0,1,.778-24.636c5.579-7.43,13.266-10.547,22.385-8.6,9,1.92,14.737,7.731,16.783,16.683A21.818,21.818,0,0,1,30.213,48.15a12.493,12.493,0,0,1-3.043.25,22.942,22.942,0,0,1-11.949-3.043,1.252,1.252,0,0,0-1.353-.2c-2.388.574-4.726,1.2-7.075,1.8a1.359,1.359,0,0,1-.339.068c-.188,0-.188-.141-.1-.492M26.491,0a31.472,31.472,0,0,0-5.063.525A26.462,26.462,0,0,0,3.3,39.1a1.57,1.57,0,0,1,.262,1.273c-1.235,4.064-2.382,8.2-3.442,12.316-.127.467-.173.632-.011.638H.123a2.356,2.356,0,0,0,.461-.114c4.289-1.172,8.54-2.243,12.81-3.316a1.253,1.253,0,0,1,.953.025A26.447,26.447,0,1,0,26.491,0Z" transform="translate(0)" fill="#fff"/></clipPath><clipPath id="b"><path d="M14.4,13.589a6.79,6.79,0,0,0-2.3,6.742,13.856,13.856,0,0,0,2.92,5.914c3.514,4.8,7.89,8.359,13.624,10.021a6.718,6.718,0,0,0,2.635.38,4.372,4.372,0,0,0,1.657-.071c2.326-.665,4.328-1.971,4.523-4.631.131-1.33.131-1.4-1.117-2.018-.283-.142-.528-.261-.819-.4-1.223-.571-2.41-1.117-3.669-1.687a1.061,1.061,0,0,0-1.4.334c-.582.782-1.223,1.589-1.882,2.374a.953.953,0,0,1-1.258.285A17.069,17.069,0,0,1,18.7,23.467a.954.954,0,0,1,.148-1.425,9.889,9.889,0,0,0,1.526-2.066,1.24,1.24,0,0,0,.113-1.068c-.718-1.686-1.478-3.372-2.208-5.154a2.112,2.112,0,0,0-.546-.665,2.3,2.3,0,0,0-1.015-.187,3.775,3.775,0,0,0-2.321.687" transform="translate(-11.937 -12.902)" fill="#fff"/></clipPath></defs><g transform="translate(-168.5 -582)"><g transform="translate(168.5 582)"><g transform="translate(0)"><g clip-path="url(#a)"><rect width="97.369" height="78.853" transform="translate(-44.065 27.428) rotate(-35.204)" fill="#fff"/></g></g><g transform="translate(13.75 14.762)"><g clip-path="url(#b)"><rect width="34.994" height="34.462" transform="matrix(0.817, -0.576, 0.576, 0.817, -11.592, 7.914)" fill="#fff"/></g></g></g></g></svg>